<svg xmlns="http://www.w3.org/2000/svg" xmlns:xlink="http://www.w3.org/1999/xlink" width="200" zoomAndPan="magnify" viewBox="0 0 150 149.999998" height="200" preserveAspectRatio="xMidYMid meet" version="1.0"><defs><clipPath id="ef4f634fec"><path d="M 4 25 L 146 25 L 146 135.683594 L 4 135.683594 Z M 4 25 " clip-rule="nonzero"/></clipPath><clipPath id="e75a601f95"><path d="M 4 23 L 137 23 L 137 135.683594 L 4 135.683594 Z M 4 23 " clip-rule="nonzero"/></clipPath><clipPath id="865d531905"><path d="M 0 15 L 150 15 L 150 135.683594 L 0 135.683594 Z M 0 15 " clip-rule="nonzero"/></clipPath></defs><g clip-path="url(#ef4f634fec)"><path fill="#ffffff" d="M 57.144531 49.742188 C 57.144531 42.28125 63.199219 36.230469 70.667969 36.230469 C 78.140625 36.230469 84.195312 42.28125 84.195312 49.742188 C 84.195312 57.207031 78.140625 63.253906 70.667969 63.253906 C 63.199219 63.253906 57.144531 57.207031 57.144531 49.742188 Z M 75.230469 36.789062 C 78.265625 37.394531 80.800781 40.230469 80.800781 40.230469 C 80.800781 40.230469 80.902344 38.308594 79.382812 35.371094 C 77.859375 32.433594 77.050781 29.804688 75.734375 29.90625 C 74.414062 30.007812 73.910156 31.222656 73.910156 31.222656 C 73.910156 31.222656 74.011719 30.714844 72.59375 30.515625 C 71.171875 30.3125 70.464844 31.121094 70.464844 31.121094 C 70.464844 31.121094 69.148438 29.703125 67.933594 31.628906 C 66.714844 33.554688 67.121094 36.082031 67.121094 36.082031 C 68.542969 35.472656 72.1875 36.183594 75.230469 36.789062 Z M 145.265625 127.769531 C 146.011719 131.414062 144.386719 133.703125 141.617188 133.164062 C 139.785156 132.808594 130.617188 131.769531 124 130.914062 L 125.140625 135.257812 L 101.433594 134.785156 L 103.460938 115.488281 L 102.515625 116.90625 C 102.515625 116.90625 97.046875 124.394531 94.410156 125.203125 C 91.773438 126.011719 89.683594 124.058594 89.207031 122.640625 C 88.734375 121.222656 84.007812 103.414062 84.007812 103.414062 C 84.007812 103.414062 77.453125 101.050781 74.351562 100.308594 C 71.246094 99.566406 69.484375 96.597656 69.484375 96.597656 C 69.417969 95.453125 71.308594 95.117188 72.996094 95.117188 C 74.683594 95.117188 76.574219 95.925781 76.574219 95.925781 C 76.574219 95.925781 75.898438 93.832031 76.167969 92.820312 C 76.4375 91.808594 77.046875 92.214844 78.058594 93.832031 C 79.074219 95.449219 82.316406 96.734375 85.148438 97.273438 C 87.984375 97.8125 89.335938 99.703125 90.015625 101.050781 C 90.691406 102.402344 94.269531 111.441406 94.269531 111.441406 L 96.128906 109.398438 C 96.089844 109.046875 96.09375 108.8125 96.09375 108.8125 C 96.09375 108.8125 99.203125 103.953125 102.578125 100.3125 C 105.953125 96.667969 111.191406 97.410156 111.191406 97.410156 C 114.226562 97.917969 115.546875 97.308594 115.613281 95.65625 C 115.074219 96.433594 111.597656 95.890625 109.46875 95.183594 C 107.339844 94.476562 105.621094 94.476562 106.53125 92.550781 C 107.441406 90.628906 106.835938 85.871094 107.039062 81.117188 C 107.121094 79.261719 107.863281 77.667969 108.738281 76.414062 C 108.203125 77.0625 107.753906 77.757812 107.445312 78.488281 C 106.027344 81.828125 106.738281 90.023438 106.738281 90.023438 C 105.421875 90.832031 99.949219 89.417969 99.949219 89.417969 C 99.949219 89.417969 99.441406 81.523438 99.140625 77.679688 C 98.835938 73.835938 96.605469 61.894531 96.605469 61.894531 C 96.605469 61.894531 90.226562 68.066406 88.601562 69.789062 C 86.980469 71.507812 83.992188 73.027344 83.992188 73.027344 C 83.941406 74.34375 80.699219 76.824219 78.417969 78.035156 C 76.140625 79.246094 69.605469 80.667969 69.605469 80.667969 C 69.605469 80.667969 65.605469 88.714844 65.351562 89.371094 C 65.097656 90.027344 62.007812 99.644531 56.789062 101.058594 C 51.582031 102.472656 43.894531 90.972656 43.875 90.941406 C 43.773438 91.195312 43.722656 91.34375 43.722656 91.34375 L 42.304688 89.625 C 42.304688 89.625 41.59375 90.839844 39.570312 92.761719 C 37.542969 94.683594 36.933594 94.179688 36.53125 93.570312 C 36.40625 93.390625 36.269531 93.308594 36.09375 93.332031 C 36.84375 93.605469 36.601562 95.390625 36.601562 95.390625 C 36.601562 95.390625 37.476562 95.324219 38.085938 96.402344 C 38.691406 97.484375 37.140625 99.910156 36.734375 100.722656 C 36.328125 101.53125 35.722656 102.816406 33.1875 103.082031 C 30.652344 103.351562 21.132812 103.554688 15.660156 102.816406 C 10.191406 102.070312 3.777344 102.476562 4.449219 96.808594 C 5.125 91.140625 11.609375 78.492188 11.609375 78.492188 C 11.609375 78.492188 13.535156 74.039062 16.671875 71.003906 C 19.8125 67.96875 28.628906 69.382812 28.628906 69.382812 C 28.824219 70.886719 29.347656 71.878906 30.207031 72.621094 C 29.078125 71.15625 28.628906 69.382812 28.628906 69.382812 C 28.628906 69.382812 30.046875 69.027344 31.210938 68.167969 C 32.378906 67.308594 32.683594 63.714844 32.683594 62.347656 C 32.683594 60.980469 30.859375 58.753906 29.898438 57.589844 C 28.9375 56.425781 30.050781 55.414062 30.050781 55.414062 C 30.859375 54.707031 31.164062 55.3125 33.140625 55.566406 C 35.113281 55.820312 36.738281 55.414062 39.320312 54.554688 C 41.902344 53.695312 43.980469 50.40625 43.980469 50.40625 C 43.980469 50.40625 43.980469 50.40625 44.636719 51.976562 C 45.292969 53.546875 45.546875 56.277344 45.546875 57.1875 C 45.546875 58.097656 46.054688 59.160156 46.308594 59.917969 C 46.5625 60.675781 46.460938 60.777344 45.898438 61.234375 C 45.34375 61.691406 45.039062 61.992188 43.265625 64.015625 C 41.492188 66.039062 37.539062 65.683594 37.539062 65.683594 C 37.539062 65.683594 36.628906 68.566406 36.863281 69.75 C 37.101562 70.933594 39.414062 71.25 39.414062 71.25 C 45.746094 72.210938 46.457031 73.628906 48.78125 75.652344 C 51.113281 77.675781 53.34375 82.332031 53.34375 82.332031 C 53.269531 82.347656 53.203125 82.367188 53.132812 82.378906 L 56.429688 87.085938 C 56.429688 87.085938 63.167969 77.167969 63.980469 76.207031 C 64.667969 75.390625 66.710938 74.539062 69.015625 74.300781 C 65.738281 74.371094 64.011719 73.460938 64.011719 73.460938 C 64.617188 71.839844 68.398438 70.019531 68.398438 70.019531 L 69.546875 66.511719 L 71.304688 66.378906 L 72.25 70.15625 C 72.789062 70.023438 75.421875 71.4375 75.421875 71.4375 C 75.421875 71.4375 75.285156 72.179688 74.746094 73.257812 C 74.203125 74.332031 74.339844 73.863281 70.253906 74.234375 C 73.039062 74.234375 73.445312 74.691406 74.253906 74.082031 C 75.066406 73.476562 76.078125 69.074219 77.546875 69.324219 L 75.925781 65.628906 C 78.5625 64.71875 80.6875 62.390625 80.6875 62.390625 L 79.066406 60.46875 C 82.105469 58.34375 84.332031 52.980469 84.332031 52.980469 L 85.449219 57.128906 C 85.449219 57.128906 91.726562 48.832031 94.464844 46.300781 C 97.199219 43.769531 102.769531 44.378906 102.769531 44.378906 C 104.898438 44.277344 105.304688 43.164062 105.203125 41.546875 C 105.101562 39.925781 103.582031 39.21875 103.582031 39.21875 C 94.359375 40.535156 94.765625 25.757812 94.765625 25.757812 C 98.179688 26.839844 109.253906 25.488281 109.253906 25.488281 L 110.605469 30.28125 C 110.605469 30.28125 113.101562 29.132812 113.644531 30.414062 C 114.183594 31.695312 111.753906 33.246094 111.753906 33.246094 C 111.753906 33.246094 113.238281 40.0625 113.847656 41.683594 C 114.457031 43.304688 116.445312 43.367188 116.445312 43.367188 C 116.445312 43.367188 123.335938 43.164062 126.476562 44.175781 C 129.617188 45.1875 132.457031 50.347656 132.457031 50.347656 L 132.359375 50.589844 C 135.859375 55.390625 143.546875 65.941406 144.714844 67.652344 C 146.234375 69.878906 146.335938 70.082031 144.714844 73.625 C 143.089844 77.167969 135.492188 84.757812 133.46875 86.476562 C 131.902344 87.804688 130.761719 89.496094 130.042969 89.546875 C 130.691406 90.84375 131.238281 91.742188 131.238281 91.742188 C 131.238281 91.742188 127.589844 94.777344 125.363281 95.789062 C 123.132812 96.800781 123.03125 96.699219 122.222656 94.878906 C 122.132812 94.6875 122.066406 94.460938 122.011719 94.214844 C 122.082031 94.792969 122.183594 95.363281 122.324219 95.890625 C 123.132812 98.925781 126.410156 97.679688 126.410156 97.679688 C 126.410156 97.679688 130.460938 98.21875 132.289062 100.242188 C 134.109375 102.265625 140.058594 115.625 140.058594 115.625 C 140.058594 115.625 144.523438 124.128906 145.265625 127.769531 Z M 30.964844 92.625 C 31.183594 92.71875 31.386719 92.867188 31.597656 93.09375 C 31.667969 93.167969 31.71875 93.246094 31.75 93.3125 C 32.011719 92.871094 31.703125 92.648438 30.964844 92.625 Z M 27.003906 93.5625 C 27.761719 93.277344 28.367188 93.039062 28.875 92.859375 C 28.730469 92.890625 28.578125 92.921875 28.421875 92.953125 C 27.710938 93.113281 27.148438 93.382812 26.675781 93.695312 C 26.78125 93.652344 26.890625 93.609375 27.003906 93.5625 Z M 28.625 97.609375 C 29.027344 97.519531 29.476562 97.457031 29.933594 97.375 C 29.796875 97.386719 29.664062 97.398438 29.535156 97.40625 C 28.117188 97.507812 28.320312 97.710938 28.828125 96.292969 C 29.125 95.460938 29.601562 95.078125 30.167969 94.683594 C 29.730469 94.910156 29.332031 95.15625 29.164062 95.453125 C 28.625 96.394531 27.40625 97.882812 28.625 97.609375 Z M 39.332031 71.417969 C 39.027344 72.015625 37.734375 74.054688 34.195312 74.484375 C 37.140625 75.421875 38.945312 72.199219 39.332031 71.417969 Z M 43.878906 90.921875 C 43.925781 90.832031 44.960938 88.949219 46.304688 86.804688 C 44.945312 88.496094 44.183594 90.167969 43.878906 90.921875 Z M 80.769531 71.070312 C 79.613281 71.167969 78.46875 71.601562 78.46875 71.601562 C 78.523438 71.300781 78.480469 71 78.394531 70.71875 C 78.386719 71.496094 78.117188 72.3125 78.117188 72.3125 C 78.117188 72.3125 78.3125 71.835938 80.769531 71.070312 Z M 99.164062 114.261719 C 99.007812 113.792969 98.925781 113.375 98.894531 113.140625 C 98.9375 113.554688 99.027344 113.929688 99.164062 114.261719 Z M 118.464844 101.519531 C 122.28125 101.472656 124.429688 99.996094 125.507812 98.886719 C 124.503906 99.820312 122.472656 101.023438 118.464844 101.519531 Z M 125.007812 86.726562 C 125.058594 86.878906 125.082031 87.0625 125.070312 87.285156 C 125.097656 87.058594 125.070312 86.878906 125.007812 86.726562 Z M 114.40625 72.5 C 124.160156 70.328125 127.632812 80.472656 128.007812 83.644531 C 128.132812 84.695312 128.480469 85.859375 128.910156 86.964844 C 128.195312 84.085938 127.300781 79.59375 127.300781 79.59375 C 130.746094 77.570312 133.175781 70.890625 133.175781 70.890625 L 127.414062 63.5 C 127.488281 65.117188 128.011719 76.242188 128.011719 77.367188 C 128.011719 78.582031 127.304688 79.59375 127.304688 79.59375 C 124.972656 73.722656 120.113281 71.296875 116.566406 71.902344 C 115.859375 72.027344 115.132812 72.230469 114.40625 72.5 Z M 109.570312 86.679688 C 109.644531 87.667969 109.996094 88.476562 110.480469 89.140625 C 110.175781 88.464844 109.898438 87.65625 109.570312 86.679688 Z M 132.632812 123.988281 L 130.402344 120.007812 C 130.402344 120.007812 129.390625 118.320312 128.917969 117.308594 C 128.449219 116.296875 128.175781 116.566406 128.175781 116.566406 L 124.527344 122.882812 Z M 130.710938 120.023438 C 130.71875 120.023438 130.726562 120.023438 130.738281 120.023438 C 130.726562 120.023438 130.71875 120.023438 130.710938 120.023438 Z M 130.503906 120.015625 C 130.527344 120.015625 130.558594 120.019531 130.597656 120.019531 C 130.5625 120.019531 130.53125 120.019531 130.503906 120.015625 Z M 130.417969 120.011719 C 130.429688 120.011719 130.453125 120.015625 130.492188 120.015625 C 130.457031 120.015625 130.433594 120.011719 130.417969 120.011719 Z M 138.554688 117.210938 C 136.992188 117.925781 135 117.378906 135 117.378906 C 135 117.378906 136.925781 118.082031 138.554688 117.210938 Z M 92.921875 131.546875 L 82.523438 131.34375 C 82.523438 131.34375 84.277344 130.804688 83.605469 128.238281 C 82.929688 125.675781 78.671875 111.574219 78.671875 111.574219 C 78.671875 111.574219 78.203125 110.09375 76.578125 110.09375 C 74.957031 110.09375 48.347656 109.753906 48.347656 109.753906 C 48.347656 109.753906 45.035156 110.632812 45.238281 113.128906 C 45.441406 115.625 49.496094 131.140625 50.710938 131.546875 C 51.925781 131.953125 53.683594 132.085938 53.683594 132.085938 C 53.683594 132.085938 53.613281 134.3125 54.695312 134.71875 C 55.777344 135.125 93.667969 134.988281 93.667969 134.988281 C 93.667969 134.988281 95.625 133.84375 95.488281 132.628906 C 95.355469 131.414062 92.921875 131.546875 92.921875 131.546875 Z M 92.921875 131.546875 " fill-opacity="1" fill-rule="evenodd"/></g><g clip-path="url(#e75a601f95)"><path fill="#000000" d="M 27.609375 51.464844 C 28.152344 49.914062 30.109375 43.367188 38.484375 43.976562 C 46.859375 44.582031 48.679688 48.902344 49.898438 52.34375 C 51.113281 55.785156 52.464844 70.355469 53.003906 73.191406 C 53.546875 76.023438 55.300781 78.117188 55.976562 80.476562 C 56.652344 82.835938 54.894531 85.0625 54.894531 85.0625 C 54.894531 85.0625 53.410156 82.703125 52.195312 80.476562 C 50.980469 78.25 48.210938 74.605469 45.914062 73.054688 C 43.617188 71.5 37.609375 70.625 36.863281 69.746094 C 36.121094 68.867188 37.609375 65.363281 37.609375 65.363281 C 37.609375 65.363281 38.554688 65.566406 41.121094 64.957031 C 43.6875 64.351562 45.035156 61.921875 45.035156 61.921875 C 45.035156 61.921875 46.792969 60.707031 46.660156 60.300781 C 46.523438 59.894531 45.78125 58.542969 45.78125 58.542969 C 46.050781 56.386719 44.09375 50.3125 44.09375 50.3125 C 44.09375 50.3125 44.09375 50.3125 42.335938 52.203125 C 40.578125 54.089844 37.675781 54.765625 35.109375 55.507812 C 32.542969 56.253906 31.867188 54.363281 30.515625 55.171875 C 29.164062 55.980469 29.570312 56.859375 30.988281 58.882812 C 32.769531 61.425781 32.675781 61.3125 32.542969 64.144531 C 32.40625 66.976562 30.445312 69.136719 29.03125 69.339844 C 27.609375 69.542969 22.414062 69.070312 22.414062 69.070312 L 23.222656 65.765625 C 23.222656 65.769531 27.070312 53.015625 27.609375 51.464844 Z M 9.375 101.960938 C 9.375 101.960938 2.894531 124.632812 5.527344 134.753906 L 20.21875 134.753906 C 20.21875 134.753906 20.929688 122.203125 22.042969 120.28125 C 22.042969 120.28125 25.183594 133.742188 27.613281 135.15625 L 43.621094 135.15625 C 43.621094 135.15625 41.289062 129.691406 39.671875 126.046875 C 38.046875 122.402344 35.007812 115.421875 34.300781 111.980469 C 33.59375 108.539062 32.984375 105.703125 33.1875 103.074219 C 33.183594 103.074219 19.40625 104.390625 9.375 101.960938 Z M 109.265625 25.488281 L 110.617188 30.28125 C 110.617188 30.28125 112.507812 29.066406 113.316406 29.875 C 114.125 30.683594 113.113281 32.640625 111.761719 33.246094 L 112.640625 36.351562 C 112.640625 36.351562 117.007812 34.15625 115.8125 27.851562 C 114.871094 22.855469 114.191406 23.128906 114.191406 23.128906 Z M 99.945312 89.414062 L 100.757812 102.539062 C 100.757812 102.539062 103.730469 97.816406 107.238281 97.410156 C 110.75 97.003906 114.398438 97.953125 115.347656 97.003906 C 116.292969 96.058594 115.613281 95.65625 115.613281 95.65625 C 115.613281 95.65625 111.15625 96.871094 106.15625 93.632812 L 106.730469 90.023438 Z M 96.839844 134.652344 L 101.429688 134.785156 L 103.457031 115.488281 L 99.132812 121.558594 Z M 123.179688 95.925781 C 123.179688 95.925781 123.179688 97.546875 126.421875 97.679688 C 129.664062 97.8125 130.203125 99.027344 130.203125 99.027344 L 128.449219 94.308594 Z M 132.632812 123.988281 L 128.175781 116.566406 L 124.527344 122.636719 Z M 123.988281 131.007812 L 125.613281 135.1875 L 136.554688 134.917969 L 135.609375 132.488281 Z M 123.988281 131.007812 " fill-opacity="1" fill-rule="evenodd"/></g><path fill="#f7ce4d" d="M 111.699219 17.125 C 113.117188 18.066406 114.195312 23.128906 114.195312 23.128906 C 106.425781 27.988281 94.777344 25.761719 94.777344 25.761719 C 94.777344 25.761719 94.746094 24.140625 94.878906 21.847656 C 95.011719 19.554688 95.757812 18.878906 95.757812 18.878906 C 100.285156 14.222656 110.277344 16.175781 111.699219 17.125 Z M 19.847656 95.382812 C 22.210938 96.128906 23.558594 95.988281 24.101562 95.789062 C 24.640625 95.585938 27.410156 93.496094 28.425781 92.957031 C 29.4375 92.417969 31.398438 91.742188 31.597656 93.09375 C 31.800781 94.441406 30.042969 94.714844 29.164062 95.453125 C 28.285156 96.195312 27.949219 97.273438 28.625 97.609375 C 29.300781 97.949219 32.335938 97.003906 33.011719 96.394531 C 33.6875 95.789062 35.445312 93.496094 35.445312 93.496094 L 38.757812 86.414062 L 33.082031 83.308594 C 33.082031 83.308594 34.363281 80.746094 31.800781 79.53125 C 29.234375 78.316406 27.140625 80.472656 27.140625 80.472656 L 22.210938 78.652344 L 13.96875 93.496094 C 13.96875 93.496094 17.484375 94.640625 19.847656 95.382812 Z M 68.441406 36.484375 C 66.816406 36.6875 63.425781 38.152344 61.449219 39.46875 C 59.472656 40.785156 57.699219 45.035156 56.941406 47.765625 C 56.179688 50.496094 57.75 53.636719 58.105469 54.546875 C 58.460938 55.457031 59.421875 54.902344 60.128906 54.242188 C 60.839844 53.585938 60.386719 52.269531 61.246094 52.167969 C 62.105469 52.066406 65.046875 51.15625 66.5625 50.347656 C 68.085938 49.539062 68.488281 48.121094 68.640625 46.652344 C 68.792969 45.183594 67.371094 43.667969 67.628906 42.148438 C 67.882812 40.628906 70.007812 40.578125 70.96875 39.0625 C 71.933594 37.546875 70.664062 36.226562 70.664062 36.226562 C 70.664062 36.226562 70.058594 36.285156 68.441406 36.484375 Z M 71.835938 49.84375 C 71.835938 49.84375 70.617188 51.210938 71.277344 52.574219 C 71.941406 53.9375 72.597656 54.34375 72.292969 55.40625 C 71.988281 56.46875 71.125 57.988281 72.546875 58.542969 C 73.964844 59.097656 75.636719 57.074219 76.195312 55.660156 C 76.753906 54.246094 76.75 52.269531 77.207031 51.15625 C 77.664062 50.042969 78.117188 49.636719 77.105469 49.132812 C 76.089844 48.628906 73.148438 47.617188 71.835938 49.84375 Z M 79.027344 39.269531 C 79.027344 39.269531 78.367188 41.902344 79.484375 43.214844 C 80.597656 44.527344 81.355469 45.085938 81.558594 46.453125 C 81.761719 47.820312 81.152344 49.285156 81.609375 50.398438 C 82.066406 51.511719 82.828125 52.320312 83.789062 51.15625 C 84.75 49.992188 84.699219 49.535156 84.394531 47.816406 C 84.089844 46.097656 83.636719 43.667969 82.824219 42.808594 C 82.011719 41.949219 79.027344 39.269531 79.027344 39.269531 Z M 100.960938 56.726562 L 101.164062 60.640625 L 107.441406 59.699219 L 107.035156 55.917969 Z M 120.542969 82.5 L 123.519531 80.273438 L 122.066406 78.824219 L 119.398438 81.355469 Z M 111.324219 114.867188 L 111.035156 113.09375 L 108.46875 113.582031 L 108.820312 115.929688 Z M 113.226562 126.660156 L 110.421875 126.742188 L 111.042969 130.921875 L 112.597656 132.882812 L 113.949219 131.125 Z M 113.226562 126.660156 " fill-opacity="1" fill-rule="evenodd"/><g clip-path="url(#865d531905)"><path fill="#000000" d="M 39.015625 61.21875 C 38.925781 61.046875 38.992188 60.835938 39.164062 60.75 C 39.300781 60.675781 39.464844 60.707031 39.570312 60.808594 L 39.605469 60.84375 C 39.789062 61.023438 40.027344 61.226562 40.25 61.394531 C 40.476562 61.566406 40.71875 61.707031 40.96875 61.824219 C 41.222656 61.9375 41.484375 62.027344 41.761719 62.074219 C 42.039062 62.132812 42.324219 62.140625 42.625 62.152344 L 42.660156 62.152344 C 42.824219 62.160156 42.957031 62.300781 42.949219 62.46875 C 42.945312 62.601562 42.851562 62.710938 42.730469 62.746094 C 42.398438 62.84375 42.039062 62.914062 41.675781 62.886719 C 41.3125 62.875 40.949219 62.789062 40.609375 62.644531 C 40.273438 62.507812 39.960938 62.308594 39.691406 62.074219 C 39.417969 61.824219 39.199219 61.566406 39.015625 61.21875 Z M 43.960938 54.242188 C 43.707031 54.050781 43.386719 53.929688 43.066406 53.882812 C 42.742188 53.835938 42.414062 53.867188 42.121094 53.960938 C 41.824219 54.058594 41.5625 54.199219 41.328125 54.425781 C 41.28125 54.472656 41.253906 54.542969 41.269531 54.617188 C 41.285156 54.738281 41.398438 54.816406 41.519531 54.796875 L 41.558594 54.792969 C 41.789062 54.753906 42.042969 54.714844 42.269531 54.707031 C 42.5 54.699219 42.714844 54.71875 42.917969 54.765625 C 43.125 54.816406 43.316406 54.878906 43.507812 54.980469 C 43.707031 55.066406 43.894531 55.199219 44.117188 55.324219 L 44.152344 55.34375 C 44.234375 55.386719 44.335938 55.390625 44.421875 55.347656 C 44.570312 55.273438 44.628906 55.09375 44.5625 54.949219 C 44.417969 54.679688 44.222656 54.429688 43.960938 54.242188 Z M 116.492188 85.511719 C 116.789062 85.59375 117.128906 85.300781 117.246094 84.855469 C 117.359375 84.414062 117.210938 83.992188 116.914062 83.914062 C 116.617188 83.835938 116.277344 84.128906 116.164062 84.570312 C 116.046875 85.011719 116.195312 85.433594 116.492188 85.511719 Z M 112.902344 82.824219 C 112.605469 82.742188 112.269531 83.035156 112.152344 83.480469 C 112.035156 83.921875 112.183594 84.34375 112.480469 84.421875 C 112.78125 84.5 113.117188 84.207031 113.234375 83.765625 C 113.347656 83.324219 113.199219 82.902344 112.902344 82.824219 Z M 113.964844 85.476562 C 113.894531 85.457031 113.855469 85.425781 113.808594 85.398438 C 113.757812 85.375 113.695312 85.3125 113.625 85.285156 L 113.34375 85.167969 C 113.328125 85.160156 113.308594 85.15625 113.292969 85.15625 C 113.175781 85.140625 113.066406 85.21875 113.050781 85.335938 C 113.019531 85.570312 113.078125 85.761719 113.210938 85.941406 C 113.347656 86.117188 113.546875 86.21875 113.730469 86.273438 C 113.921875 86.328125 114.101562 86.324219 114.265625 86.304688 C 114.425781 86.28125 114.582031 86.230469 114.71875 86.167969 C 114.820312 86.121094 114.894531 86.019531 114.902344 85.902344 C 114.917969 85.722656 114.785156 85.570312 114.605469 85.558594 L 114.574219 85.554688 C 114.449219 85.542969 114.332031 85.539062 114.226562 85.53125 C 114.125 85.515625 114.03125 85.507812 113.964844 85.476562 Z M 112.683594 88.316406 C 112.945312 88.535156 113.261719 88.699219 113.601562 88.792969 C 113.9375 88.878906 114.292969 88.910156 114.628906 88.847656 C 114.796875 88.832031 114.953125 88.769531 115.113281 88.726562 C 115.265625 88.667969 115.414062 88.597656 115.554688 88.523438 C 115.660156 88.46875 115.722656 88.351562 115.707031 88.230469 C 115.679688 88.078125 115.535156 87.976562 115.382812 88 L 115.351562 88.003906 C 115.078125 88.050781 114.816406 88.097656 114.5625 88.09375 C 114.308594 88.105469 114.066406 88.058594 113.832031 87.992188 C 113.601562 87.925781 113.382812 87.816406 113.175781 87.675781 C 112.976562 87.535156 112.761719 87.351562 112.601562 87.1875 L 112.566406 87.148438 C 112.472656 87.054688 112.320312 87.027344 112.195312 87.085938 C 112.039062 87.164062 111.972656 87.355469 112.050781 87.515625 C 112.214844 87.84375 112.417969 88.09375 112.683594 88.316406 Z M 112.257812 81.796875 L 112.304688 81.804688 C 112.472656 81.824219 112.652344 81.839844 112.804688 81.871094 C 112.960938 81.90625 113.097656 81.949219 113.226562 82.003906 C 113.347656 82.066406 113.46875 82.121094 113.585938 82.210938 C 113.710938 82.285156 113.824219 82.394531 113.984375 82.496094 L 114.023438 82.523438 C 114.082031 82.5625 114.160156 82.578125 114.230469 82.5625 C 114.378906 82.527344 114.476562 82.382812 114.445312 82.230469 C 114.398438 82.011719 114.292969 81.796875 114.125 81.617188 C 113.964844 81.441406 113.746094 81.304688 113.507812 81.230469 C 113.273438 81.15625 113.027344 81.136719 112.796875 81.171875 C 112.566406 81.210938 112.359375 81.289062 112.164062 81.433594 C 112.121094 81.464844 112.089844 81.511719 112.082031 81.566406 C 112.066406 81.679688 112.144531 81.78125 112.257812 81.796875 Z M 116.449219 82.882812 L 116.496094 82.890625 C 116.664062 82.914062 116.84375 82.929688 116.996094 82.960938 C 117.152344 82.992188 117.292969 83.035156 117.417969 83.089844 C 117.542969 83.152344 117.664062 83.210938 117.777344 83.296875 C 117.90625 83.375 118.019531 83.484375 118.175781 83.585938 L 118.21875 83.609375 C 118.277344 83.648438 118.351562 83.664062 118.425781 83.648438 C 118.574219 83.617188 118.671875 83.472656 118.636719 83.320312 C 118.589844 83.097656 118.484375 82.882812 118.320312 82.707031 C 118.160156 82.527344 117.9375 82.390625 117.703125 82.320312 C 117.464844 82.242188 117.21875 82.222656 116.992188 82.261719 C 116.757812 82.300781 116.550781 82.375 116.355469 82.523438 C 116.316406 82.554688 116.28125 82.601562 116.277344 82.65625 C 116.261719 82.773438 116.335938 82.875 116.449219 82.882812 Z M 150.011719 135.121094 C 150.011719 135.421875 149.769531 135.667969 149.464844 135.667969 L 0.542969 135.667969 C 0.242188 135.667969 0 135.421875 0 135.121094 C 0 134.820312 0.242188 134.578125 0.542969 134.578125 L 4.65625 134.578125 C 3.039062 119.210938 7.679688 105.5625 8.828125 102.5 C 6.757812 102.144531 5.375 101.402344 4.628906 100.230469 C 3.566406 98.566406 4.054688 96.40625 4.601562 94.714844 C 5.515625 91.894531 11.429688 76.300781 15.332031 71.464844 C 16.867188 69.570312 19.378906 68.90625 21.894531 68.710938 C 22.527344 66.355469 26.578125 51.492188 28.507812 48.601562 C 29.738281 46.753906 33.484375 41.136719 43.640625 44.265625 C 50.53125 46.390625 51.449219 55.90625 52.125 62.851562 C 52.195312 63.566406 52.261719 64.253906 52.332031 64.90625 L 52.390625 65.445312 C 53.078125 71.828125 53.394531 74.738281 55.503906 78.316406 C 57.746094 82.121094 55.890625 84.691406 55.554688 85.105469 C 55.933594 85.714844 56.222656 86.152344 56.425781 86.457031 C 58.59375 83.21875 61.488281 78.9375 62.703125 77.320312 C 63.527344 76.226562 64.375 75.40625 65.296875 74.832031 L 63.578125 74.832031 C 63.398438 74.832031 63.230469 74.742188 63.128906 74.59375 C 63.027344 74.445312 63.007812 74.253906 63.074219 74.085938 C 63.128906 73.953125 64.394531 70.90625 67.933594 69.804688 L 68.984375 66.703125 C 60.367188 65.855469 53.613281 58.578125 53.613281 49.746094 C 53.613281 42.644531 58.09375 36.21875 64.761719 33.757812 C 65.03125 33.660156 65.332031 33.789062 65.449219 34.046875 L 66.421875 36.242188 C 66.570312 36.195312 66.722656 36.15625 66.871094 36.113281 C 66.320312 35.3125 66.703125 33.824219 67.164062 32.648438 C 68.023438 30.4375 69.707031 30.296875 70.574219 30.546875 C 70.863281 30.246094 71.214844 30.0625 71.609375 30.003906 C 72.613281 29.863281 73.546875 30.570312 73.734375 30.722656 C 74.144531 30.25 74.601562 29.871094 75.070312 29.652344 C 75.722656 29.351562 76.382812 29.351562 76.980469 29.65625 C 78.765625 30.5625 79.472656 33.914062 79.546875 34.292969 C 79.550781 34.300781 79.546875 34.3125 79.550781 34.320312 L 81.273438 40.273438 C 81.285156 40.308594 81.289062 40.339844 81.292969 40.371094 C 83.582031 42.960938 84.84375 46.28125 84.84375 49.742188 C 84.84375 50.511719 84.78125 51.265625 84.664062 52.003906 C 84.667969 52.007812 84.667969 52.011719 84.671875 52.019531 L 85.761719 55.785156 C 87.339844 53.667969 92 47.585938 94.597656 45.941406 C 96.5 44.734375 99.515625 44.269531 101.933594 43.898438 C 103.125 43.710938 104.605469 43.484375 104.859375 43.261719 C 105.085938 43.058594 104.886719 41.675781 104.082031 39.902344 C 101.484375 40.144531 99.351562 39.484375 97.734375 37.9375 C 93.976562 34.339844 94.335938 27.171875 94.402344 26.214844 C 94.390625 26.164062 94.378906 26.117188 94.382812 26.0625 L 94.574219 20.722656 C 94.5625 19.3125 95.308594 18.003906 96.523438 17.296875 C 100.023438 15.265625 106.035156 15.289062 109.304688 15.484375 C 110.835938 15.574219 112.183594 16.554688 112.734375 17.984375 L 114.855469 22.902344 C 114.875 22.941406 114.886719 22.980469 114.890625 23.019531 C 114.898438 23.035156 114.90625 23.046875 114.910156 23.058594 C 114.980469 23.234375 116.589844 27.339844 116.5 29.976562 C 116.378906 33.535156 113.878906 36.125 113.0625 36.878906 L 114.078125 40.578125 C 114.410156 41.527344 114.886719 42.671875 115.574219 42.835938 C 116.042969 42.949219 116.953125 42.875 118.011719 42.792969 C 121.398438 42.523438 126.515625 42.117188 129.847656 46.15625 C 132.628906 49.527344 136.121094 54.578125 138.929688 58.632812 C 140.390625 60.742188 141.652344 62.5625 142.425781 63.582031 C 142.578125 63.765625 146.429688 68.519531 146.285156 71.796875 C 146.128906 75.414062 133.101562 87.558594 130.476562 89.972656 C 130.820312 90.570312 131.234375 91.054688 131.75 91.386719 C 131.894531 91.484375 131.992188 91.636719 132 91.8125 C 132.011719 91.988281 131.941406 92.152344 131.804688 92.265625 C 131.707031 92.347656 130.660156 93.210938 129.222656 94.164062 L 130.40625 98.417969 C 131.785156 99.117188 133.121094 100.246094 134.164062 102.214844 C 137.445312 108.375 145.441406 125.113281 145.96875 127.769531 C 146.160156 128.710938 146.445312 131.0625 145.050781 132.566406 C 144.332031 133.339844 143.3125 133.734375 142.011719 133.734375 C 141.726562 133.734375 141.429688 133.714844 141.113281 133.675781 C 140.214844 133.566406 138.558594 133.351562 136.511719 133.082031 L 137.011719 134.582031 L 149.464844 134.582031 C 149.769531 134.578125 150.011719 134.820312 150.011719 135.121094 Z M 135.308594 132.917969 C 132.121094 132.492188 128.25 131.972656 124.855469 131.503906 L 125.84375 134.578125 L 135.863281 134.578125 Z M 144.898438 127.976562 C 144.65625 126.769531 142.550781 121.980469 140.074219 116.6875 C 138.820312 118.203125 136.769531 118.261719 135.449219 117.996094 C 134.691406 119.835938 132.972656 120.34375 131.578125 120.34375 C 131.484375 120.34375 131.394531 120.339844 131.308594 120.335938 L 133.015625 123.238281 L 136.070312 123.582031 C 136.367188 123.617188 136.585938 123.886719 136.550781 124.183594 C 136.515625 124.480469 136.25 124.699219 135.949219 124.664062 L 119.46875 122.804688 C 118.925781 122.742188 118.472656 122.34375 118.335938 121.8125 C 118.105469 120.875 117.472656 118.515625 116.621094 116.964844 C 115.785156 115.441406 114.207031 114.933594 111.804688 115.417969 C 110.382812 115.699219 108.714844 116.679688 107.953125 117.15625 C 108.144531 117.328125 108.507812 117.480469 109.214844 117.324219 L 109.4375 117.273438 C 111.15625 116.890625 112.292969 116.636719 114.136719 116.910156 C 114.375 116.945312 114.558594 117.128906 114.59375 117.363281 C 114.632812 117.597656 114.511719 117.832031 114.292969 117.9375 C 111.941406 119.082031 109.214844 120.589844 108.917969 121.03125 C 108.789062 121.246094 108.738281 121.679688 108.761719 122.214844 L 114.625 119.320312 C 114.890625 119.183594 115.21875 119.296875 115.351562 119.566406 C 115.488281 119.832031 115.375 120.160156 115.105469 120.292969 L 108.902344 123.359375 C 108.980469 123.769531 109.097656 124.191406 109.242188 124.601562 L 115.710938 121.957031 C 115.988281 121.847656 116.304688 121.980469 116.421875 122.253906 C 116.53125 122.535156 116.402344 122.851562 116.121094 122.964844 L 109.699219 125.59375 C 110.214844 126.375 111.355469 126.757812 116.171875 125.023438 C 116.453125 124.921875 116.765625 125.066406 116.867188 125.347656 C 116.96875 125.632812 116.824219 125.945312 116.539062 126.046875 C 116.046875 126.222656 115.59375 126.375 115.160156 126.515625 C 115.167969 126.546875 115.175781 126.574219 115.175781 126.605469 C 115.300781 128.222656 115.835938 129.058594 116.859375 129.25 C 118.410156 129.542969 137.007812 132.070312 141.242188 132.582031 C 142.605469 132.75 143.617188 132.492188 144.246094 131.816406 C 144.984375 131.035156 145.222656 129.59375 144.898438 127.976562 Z M 112.550781 127.210938 C 112.035156 127.300781 111.578125 127.351562 111.1875 127.351562 C 111.132812 127.351562 111.078125 127.347656 111.023438 127.347656 L 111.601562 130.957031 L 112.472656 131.878906 L 113.15625 130.796875 Z M 109.648438 119.179688 C 110.339844 118.761719 111.148438 118.316406 111.910156 117.921875 C 111.21875 117.992188 110.535156 118.144531 109.675781 118.335938 L 109.515625 118.371094 Z M 109.09375 115.265625 C 109.523438 115.054688 109.980469 114.847656 110.449219 114.675781 L 110.257812 113.519531 L 108.875 113.851562 Z M 128.324219 117.410156 L 125.492188 122.390625 L 131.664062 123.085938 Z M 126.230469 98.332031 C 125.90625 98.949219 123.847656 102.210938 116.675781 102.40625 C 116.507812 102.410156 116.347656 102.414062 116.1875 102.414062 C 113.5 102.414062 111.691406 101.773438 110.8125 100.515625 C 110.148438 99.5625 110.199219 98.515625 110.320312 97.882812 C 109.742188 97.851562 109.148438 97.832031 108.570312 97.851562 C 105.796875 97.941406 102.40625 100.621094 99.277344 105.203125 C 98.34375 106.574219 97.550781 107.71875 96.898438 108.644531 C 96.863281 108.847656 96.394531 111.972656 99.234375 112.53125 C 99.507812 112.585938 99.695312 112.832031 99.675781 113.105469 C 99.675781 113.113281 99.625 113.878906 99.941406 114.644531 C 100.320312 115.546875 101.066406 116.070312 102.144531 116.207031 C 102.632812 115.535156 102.96875 115.0625 103.054688 114.941406 L 103.722656 108.753906 C 103.753906 108.457031 104.019531 108.238281 104.320312 108.273438 C 104.617188 108.304688 104.835938 108.574219 104.804688 108.871094 L 102.023438 134.582031 L 124.695312 134.582031 L 123.652344 131.339844 C 120.105469 130.851562 117.277344 130.445312 116.65625 130.328125 C 115.148438 130.046875 114.292969 128.875 114.101562 126.847656 C 113.929688 126.894531 113.769531 126.933594 113.609375 126.976562 L 114.257812 130.820312 C 114.277344 130.953125 114.253906 131.089844 114.179688 131.203125 L 113.007812 133.054688 C 112.917969 133.195312 112.769531 133.289062 112.597656 133.304688 C 112.578125 133.304688 112.5625 133.308594 112.546875 133.308594 C 112.398438 133.308594 112.253906 133.246094 112.152344 133.136719 L 110.683594 131.574219 C 110.609375 131.496094 110.5625 131.398438 110.542969 131.289062 L 109.878906 127.121094 C 109.179688 126.828125 108.761719 126.261719 108.421875 125.492188 C 107.730469 123.898438 107.363281 121.53125 107.980469 120.480469 C 108.082031 120.300781 108.324219 120.082031 108.652344 119.839844 L 108.421875 118.460938 C 108.0625 118.429688 107.746094 118.328125 107.472656 118.152344 C 106.859375 117.753906 106.71875 117.152344 106.703125 117.085938 C 106.660156 116.871094 106.746094 116.648438 106.925781 116.527344 C 106.96875 116.496094 107.417969 116.1875 108.074219 115.808594 L 107.710938 113.527344 C 107.667969 113.246094 107.847656 112.980469 108.121094 112.910156 L 110.566406 112.328125 C 110.710938 112.292969 110.867188 112.320312 110.992188 112.402344 C 111.121094 112.488281 111.203125 112.617188 111.230469 112.765625 L 111.496094 114.367188 C 111.527344 114.359375 111.554688 114.355469 111.589844 114.347656 C 115.191406 113.625 116.835938 115.085938 117.574219 116.4375 C 118.453125 118.042969 119.09375 120.332031 119.394531 121.546875 C 119.414062 121.644531 119.496094 121.707031 119.589844 121.71875 L 124.3125 122.253906 C 124.316406 122.246094 124.316406 122.238281 124.320312 122.234375 L 127.679688 116.324219 L 126.417969 114.175781 C 126.265625 113.917969 126.351562 113.585938 126.609375 113.433594 C 126.867188 113.28125 127.203125 113.367188 127.355469 113.625 L 130.605469 119.152344 C 131 119.234375 133.84375 119.75 134.5625 117.191406 C 134.605469 117.050781 134.699219 116.933594 134.828125 116.863281 C 134.960938 116.792969 135.113281 116.777344 135.25 116.824219 C 135.375 116.863281 138.3125 117.738281 139.523438 115.542969 C 137.261719 110.75 134.789062 105.730469 133.183594 102.722656 C 131.351562 99.257812 128.535156 98.722656 126.230469 98.332031 Z M 100.933594 134.578125 L 102.820312 117.128906 C 102 118.25 100.84375 119.796875 99.675781 121.234375 C 99.675781 121.238281 99.675781 121.238281 99.675781 121.242188 L 98.359375 129.613281 L 97.765625 133.402344 L 97.578125 134.578125 Z M 96.476562 134.578125 L 96.6875 133.234375 L 97.28125 129.441406 L 98.320312 122.832031 C 97.511719 123.742188 96.761719 124.488281 96.199219 124.875 C 95.113281 125.613281 93.917969 126.003906 92.804688 126.003906 C 92.332031 126.003906 91.875 125.933594 91.449219 125.789062 C 90.5 125.464844 89.214844 124.609375 88.484375 122.367188 C 87.25 118.578125 83.96875 105.617188 83.46875 103.640625 C 82.941406 103.375 81.34375 102.632812 78.761719 102.085938 C 74.628906 101.207031 71.90625 99.5625 70.65625 98.65625 C 69.535156 97.847656 68.8125 97.148438 68.929688 96.34375 C 69.054688 95.507812 70.042969 95.0625 70.894531 94.769531 C 72.875 94.078125 74.359375 94.65625 76.058594 95.542969 C 75.597656 94.613281 75.183594 93.515625 75.34375 92.828125 C 75.414062 92.53125 75.582031 92.292969 75.824219 92.148438 C 76.800781 91.5625 77.703125 92.472656 78.65625 93.433594 C 79.199219 93.984375 79.820312 94.613281 80.519531 95.058594 C 81.753906 95.851562 82.894531 96.125 84.339844 96.46875 C 84.96875 96.617188 85.679688 96.789062 86.457031 97.019531 C 89.300781 97.863281 90.367188 100.511719 92.015625 105.117188 C 92.722656 107.101562 93.484375 109.054688 94.125 110.652344 C 94.699219 109.863281 96.125 107.890625 98.378906 104.589844 C 98.933594 103.773438 99.496094 103.023438 100.0625 102.324219 C 99.957031 100.496094 99.042969 84.351562 98.789062 80.4375 C 98.609375 77.667969 97.308594 68.632812 96.46875 62.972656 C 94.617188 65.015625 88.195312 71.871094 84.324219 72.945312 C 83.957031 74.878906 80.285156 77.855469 77.359375 78.886719 C 74.558594 79.882812 70.710938 80.882812 69.71875 81.136719 C 69.308594 81.957031 67.746094 85.125 64.90625 91.417969 C 61.84375 98.214844 59.9375 101.484375 56.121094 101.484375 C 55.722656 101.484375 55.308594 101.449219 54.871094 101.378906 C 51.074219 100.777344 44.464844 92.953125 42.472656 90.496094 C 41.121094 93.125 38.253906 94.164062 37.21875 94.464844 C 37.214844 94.582031 37.203125 94.699219 37.183594 94.8125 C 37.527344 94.945312 37.828125 95.226562 38.035156 95.546875 C 38.964844 96.1875 38.65625 97.203125 38.042969 98.90625 C 37.265625 101.5625 36.082031 102.71875 33.746094 103.320312 C 33.726562 103.515625 33.652344 104.671875 33.886719 108.574219 C 34.148438 112.878906 43.875 134.34375 43.972656 134.558594 C 43.976562 134.566406 43.976562 134.570312 43.980469 134.578125 L 53.683594 134.578125 C 53.296875 134.101562 53.0625 133.496094 53.0625 132.835938 L 53.0625 132.628906 L 52.519531 132.628906 C 51.003906 132.628906 49.675781 131.605469 49.289062 130.144531 L 44.957031 113.734375 C 44.691406 112.726562 44.902344 111.675781 45.539062 110.847656 C 46.179688 110.019531 47.140625 109.550781 48.1875 109.550781 L 76.078125 109.550781 C 77.566406 109.550781 78.886719 110.546875 79.289062 111.980469 L 83.925781 128.386719 C 84.179688 129.285156 84.050781 130.214844 83.582031 131.003906 L 94.296875 131.003906 C 94.886719 131.003906 95.417969 131.304688 95.71875 131.808594 C 96.019531 132.3125 96.035156 132.921875 95.753906 133.4375 L 95.511719 133.886719 C 95.371094 134.140625 95.203125 134.371094 95.007812 134.578125 Z M 82.886719 128.683594 L 78.25 112.277344 C 77.976562 111.3125 77.085938 110.640625 76.082031 110.640625 L 48.191406 110.640625 C 47.488281 110.640625 46.835938 110.960938 46.410156 111.519531 C 45.980469 112.078125 45.835938 112.785156 46.015625 113.460938 L 50.351562 129.871094 C 50.613281 130.859375 51.503906 131.546875 52.527344 131.546875 L 80.71875 131.546875 C 81.429688 131.546875 82.082031 131.21875 82.511719 130.65625 C 82.941406 130.085938 83.078125 129.367188 82.886719 128.683594 Z M 54.160156 132.839844 C 54.160156 133.761719 54.910156 134.511719 55.832031 134.511719 L 92.652344 134.511719 C 93.453125 134.511719 94.1875 134.078125 94.5625 133.375 L 94.804688 132.925781 C 94.945312 132.671875 94.84375 132.449219 94.796875 132.367188 C 94.746094 132.28125 94.597656 132.089844 94.308594 132.089844 L 82.550781 132.089844 C 82.015625 132.4375 81.390625 132.628906 80.726562 132.628906 L 54.164062 132.628906 L 54.164062 132.839844 Z M 30.03125 95.671875 C 29.511719 95.933594 29.128906 96.453125 28.933594 96.84375 C 30.046875 96.765625 32.089844 96.503906 32.863281 95.796875 C 33.265625 95.429688 33.609375 94.960938 33.941406 94.503906 C 34.222656 94.117188 34.507812 93.726562 34.820312 93.433594 C 34.828125 93.382812 34.84375 93.332031 34.867188 93.285156 L 38.09375 86.472656 L 32.695312 83.890625 C 32.441406 83.769531 32.324219 83.484375 32.414062 83.222656 C 32.445312 83.125 33.222656 80.761719 31.308594 80.007812 C 29.296875 79.210938 27.894531 80.929688 27.832031 81.007812 C 27.679688 81.199219 27.414062 81.261719 27.191406 81.167969 L 22.378906 79.085938 L 14.695312 93.167969 C 16.171875 93.554688 19.664062 94.46875 21.347656 95.027344 C 23.320312 95.683594 23.511719 95.707031 25.066406 94.433594 C 26.816406 92.699219 28.984375 92.039062 30.386719 92.039062 C 30.664062 92.039062 30.914062 92.066406 31.125 92.117188 C 31.792969 92.273438 32.039062 92.628906 32.128906 92.898438 C 32.628906 94.371094 30.941406 95.21875 30.03125 95.671875 Z M 105.4375 93.78125 C 105.4375 93.605469 105.492188 93.46875 105.636719 93.375 C 105.714844 93.242188 106.011719 92.625 106.160156 90.679688 C 106.136719 90.679688 106.109375 90.679688 106.085938 90.679688 C 104.148438 90.679688 101.46875 90.28125 100.457031 90.117188 C 100.710938 94.46875 100.96875 98.980469 101.089844 101.140625 C 103.632812 98.367188 106.203125 96.839844 108.539062 96.761719 C 109.648438 96.726562 110.777344 96.8125 111.78125 96.890625 C 113.085938 96.988281 114.863281 97.125 115.042969 96.691406 C 115.0625 96.644531 115.082031 96.585938 115.09375 96.519531 C 109.082031 96.394531 105.859375 94.304688 105.722656 94.214844 C 105.566406 94.117188 105.433594 93.96875 105.4375 93.78125 Z M 112.304688 90.277344 C 113.5 91.078125 114.929688 91.097656 114.941406 91.097656 C 115.1875 91.101562 115.402344 91.265625 115.464844 91.496094 C 115.660156 92.203125 116.601562 95.789062 116.050781 97.113281 C 115.566406 98.273438 113.859375 98.144531 111.699219 97.976562 C 111.609375 97.96875 111.515625 97.960938 111.425781 97.957031 C 111.328125 98.363281 111.21875 99.195312 111.714844 99.902344 C 112.417969 100.898438 114.125 101.386719 116.648438 101.316406 C 120.328125 101.21875 122.488281 100.257812 123.648438 99.46875 C 124.40625 98.953125 124.847656 98.445312 125.074219 98.125 C 123.828125 97.875 122.800781 97.507812 122.277344 96.472656 C 122.273438 96.46875 122.273438 96.464844 122.269531 96.460938 C 122.265625 96.449219 122.257812 96.441406 122.25 96.429688 C 120.890625 93.601562 121.171875 88.675781 121.183594 88.46875 C 121.195312 88.300781 121.28125 88.144531 121.417969 88.050781 C 121.558594 87.957031 121.730469 87.933594 121.890625 87.984375 C 122.277344 88.101562 123.414062 88.34375 124.070312 87.980469 C 124.3125 87.84375 124.460938 87.644531 124.542969 87.347656 C 124.601562 87.117188 124.59375 86.949219 124.507812 86.863281 C 124.238281 86.574219 123.25 86.585938 122.644531 86.707031 C 122.472656 86.738281 122.296875 86.691406 122.171875 86.574219 C 122.042969 86.460938 121.976562 86.289062 121.996094 86.117188 L 122.167969 84.40625 L 113.144531 77.929688 C 112.722656 78.5625 111.925781 79.816406 111.257812 81.320312 C 110.785156 82.382812 110.449219 83.398438 110.265625 84.335938 C 109.726562 87.019531 110.414062 89.015625 112.304688 90.277344 Z M 120.675781 81.90625 L 122.824219 80.171875 L 121.976562 79.375 L 119.671875 81.277344 L 120.621094 81.960938 C 120.640625 81.941406 120.65625 81.921875 120.675781 81.90625 Z M 101.433594 117.175781 C 99.285156 116.636719 98.636719 114.769531 98.585938 113.488281 C 96.75 112.945312 96.023438 111.496094 95.824219 110.167969 C 95.09375 111.191406 94.714844 111.691406 94.707031 111.703125 C 94.675781 111.746094 94.636719 111.777344 94.597656 111.8125 C 95.214844 113.328125 95.640625 114.308594 95.652344 114.332031 C 95.773438 114.609375 95.644531 114.925781 95.367188 115.046875 C 95.09375 115.167969 94.773438 115.039062 94.652344 114.765625 C 94.636719 114.71875 92.667969 110.171875 90.996094 105.488281 C 89.332031 100.835938 88.371094 98.722656 86.152344 98.066406 C 85.402344 97.847656 84.738281 97.6875 84.09375 97.535156 C 82.609375 97.179688 81.328125 96.875 79.933594 95.984375 C 79.136719 95.472656 78.46875 94.800781 77.886719 94.207031 C 77.34375 93.660156 76.671875 92.976562 76.410156 93.078125 C 76.257812 93.472656 76.96875 95.132812 77.914062 96.613281 C 78.050781 96.820312 78.023438 97.09375 77.855469 97.273438 C 77.691406 97.457031 77.425781 97.503906 77.203125 97.390625 C 76.878906 97.222656 76.574219 97.054688 76.28125 96.898438 C 74.667969 96.039062 73.570312 95.445312 72.261719 95.574219 C 73.085938 96.226562 74.441406 97.21875 75.925781 97.976562 C 76.195312 98.113281 76.300781 98.441406 76.164062 98.710938 C 76.070312 98.898438 75.878906 99.007812 75.679688 99.007812 C 75.59375 99.007812 75.511719 98.988281 75.433594 98.949219 C 73.367188 97.898438 71.59375 96.457031 70.957031 95.914062 C 70.054688 96.269531 70.003906 96.507812 70.003906 96.507812 C 69.996094 96.5625 70.023438 96.871094 71.285156 97.785156 C 72.472656 98.640625 75.046875 100.199219 78.980469 101.035156 C 82.371094 101.753906 84.136719 102.773438 84.210938 102.820312 C 84.335938 102.890625 84.425781 103.015625 84.460938 103.15625 C 84.496094 103.304688 88.21875 118.058594 89.511719 122.046875 C 89.984375 123.5 90.753906 124.417969 91.789062 124.773438 C 92.890625 125.148438 94.304688 124.855469 95.574219 123.988281 C 96.960938 123.042969 99.679688 119.542969 101.433594 117.175781 Z M 128.257812 94.769531 C 126.898438 95.59375 125.332031 96.371094 123.933594 96.644531 C 124.472656 96.921875 125.253906 97.066406 126.273438 97.238281 C 127.140625 97.382812 128.125 97.554688 129.125 97.886719 Z M 130.570312 91.847656 C 128.890625 90.316406 128.304688 87.484375 127.6875 84.507812 C 126.921875 80.804688 126.050781 76.605469 122.929688 74.375 C 121.613281 73.429688 120.179688 72.820312 118.675781 72.566406 C 113.800781 71.746094 109.097656 74.882812 107.742188 79.863281 C 107.328125 81.382812 107.175781 83.277344 107.277344 85.644531 C 107.484375 90.53125 107.09375 92.644531 106.746094 93.550781 C 107.769531 94.085938 110.632812 95.339844 115.105469 95.433594 C 115.027344 94.464844 114.773438 93.175781 114.511719 92.152344 C 113.90625 92.089844 112.746094 91.878906 111.699219 91.179688 C 109.4375 89.671875 108.570312 87.230469 109.191406 84.121094 C 109.394531 83.109375 109.753906 82.019531 110.261719 80.878906 C 111.273438 78.597656 112.527344 76.910156 112.578125 76.839844 C 112.753906 76.601562 113.089844 76.550781 113.332031 76.722656 L 118.757812 80.621094 L 121.648438 78.230469 C 121.859375 78.058594 122.167969 78.066406 122.367188 78.253906 L 124.023438 79.804688 C 124.136719 79.914062 124.199219 80.066406 124.191406 80.222656 C 124.1875 80.378906 124.113281 80.527344 123.988281 80.625 L 121.527344 82.613281 L 123.054688 83.707031 C 123.210938 83.820312 123.296875 84.007812 123.277344 84.203125 L 123.144531 85.546875 C 123.820312 85.5 124.769531 85.558594 125.296875 86.117188 C 125.542969 86.375 125.792969 86.851562 125.589844 87.625 C 125.4375 88.203125 125.089844 88.65625 124.589844 88.933594 C 123.832031 89.347656 122.878906 89.289062 122.242188 89.179688 C 122.21875 90.515625 122.257812 93.617188 123.089844 95.640625 C 124.597656 95.585938 126.5625 94.5625 128.171875 93.53125 C 128.234375 93.460938 128.3125 93.410156 128.402344 93.378906 C 129.316406 92.796875 130.089844 92.222656 130.570312 91.847656 Z M 133.078125 71.476562 L 127.699219 64.660156 L 128.242188 78.023438 C 129.710938 76.421875 131.691406 73.566406 133.078125 71.476562 Z M 114.058594 23.898438 C 112.613281 24.628906 111.136719 25.195312 109.671875 25.628906 L 110.625 29.773438 C 111.175781 29.410156 111.96875 29.023438 112.730469 29.117188 C 113.242188 29.179688 113.671875 29.453125 113.976562 29.910156 C 114.261719 30.339844 114.34375 30.816406 114.21875 31.304688 C 113.945312 32.324219 112.773438 33.140625 112.136719 33.519531 L 112.730469 35.675781 C 113.65625 34.699219 115.320312 32.589844 115.410156 29.941406 C 115.472656 28.003906 114.460938 25.011719 114.058594 23.898438 Z M 96.035156 19.363281 C 97.339844 19.746094 101.355469 20.488281 108.660156 18.179688 C 108.957031 18.085938 109.273438 18.25 109.367188 18.546875 C 109.460938 18.84375 109.292969 19.160156 109 19.253906 C 104.90625 20.546875 101.792969 20.921875 99.5625 20.921875 C 97.667969 20.921875 96.40625 20.652344 95.714844 20.441406 C 95.707031 20.53125 95.695312 20.628906 95.699219 20.722656 C 95.699219 20.730469 95.699219 20.738281 95.699219 20.746094 L 95.523438 25.589844 C 97.640625 25.851562 106.226562 26.601562 113.605469 22.859375 L 111.683594 18.414062 C 111.285156 17.378906 110.320312 16.683594 109.230469 16.617188 C 106.085938 16.429688 100.324219 16.398438 97.082031 18.28125 C 96.636719 18.539062 96.277344 18.917969 96.035156 19.363281 Z M 104.542969 44.53125 C 108.59375 45.660156 112.71875 44.433594 114.734375 43.648438 C 113.910156 43.121094 113.414062 41.988281 113.039062 40.90625 L 110.976562 33.390625 C 110.90625 33.140625 111.027344 32.878906 111.253906 32.761719 C 111.902344 32.4375 112.988281 31.675781 113.164062 31.019531 C 113.210938 30.839844 113.183594 30.679688 113.074219 30.511719 C 112.941406 30.316406 112.796875 30.222656 112.601562 30.195312 C 111.941406 30.109375 110.945312 30.851562 110.652344 31.121094 C 110.511719 31.253906 110.308594 31.296875 110.121094 31.238281 C 109.9375 31.179688 109.800781 31.027344 109.753906 30.84375 L 108.621094 25.921875 C 105.375 26.753906 102.257812 26.988281 99.8125 26.988281 C 97.820312 26.988281 96.277344 26.835938 95.464844 26.734375 C 95.40625 28.496094 95.464844 34.269531 98.488281 37.160156 C 99.9375 38.546875 101.898438 39.089844 104.335938 38.78125 C 104.566406 38.75 104.792969 38.871094 104.894531 39.082031 C 105.46875 40.257812 106.675781 43.101562 105.578125 44.078125 C 105.363281 44.265625 105.027344 44.40625 104.542969 44.53125 Z M 84.140625 54.128906 C 83.347656 56.558594 81.910156 58.695312 80.039062 60.351562 L 81.304688 62.457031 C 81.445312 62.691406 81.390625 62.996094 81.175781 63.164062 C 79.796875 64.242188 78.292969 65.085938 76.699219 65.6875 L 77.769531 68.898438 C 77.777344 68.921875 77.785156 68.953125 77.789062 68.976562 C 78.003906 69.070312 78.199219 69.214844 78.347656 69.417969 C 78.671875 69.855469 78.773438 70.488281 78.777344 71.066406 C 80.25 70.257812 81.757812 70.339844 82.75 70.734375 C 83.394531 70.988281 83.875 71.386719 84.140625 71.867188 C 85.78125 71.378906 88.273438 69.578125 91.394531 66.621094 C 94.007812 64.140625 96.136719 61.71875 96.15625 61.691406 C 96.191406 61.65625 96.230469 61.625 96.269531 61.597656 C 95.972656 59.597656 95.769531 58.269531 95.761719 58.21875 C 95.714844 57.921875 95.921875 57.644531 96.21875 57.597656 C 96.511719 57.554688 96.792969 57.757812 96.839844 58.054688 C 96.953125 58.792969 99.617188 76.207031 99.886719 80.367188 C 99.984375 81.902344 100.1875 85.308594 100.402344 89.003906 C 101.117188 89.121094 104.210938 89.613281 106.226562 89.589844 C 106.261719 88.570312 106.261719 87.292969 106.195312 85.6875 C 106.089844 83.203125 106.253906 81.203125 106.699219 79.574219 C 108.203125 74.046875 113.433594 70.574219 118.863281 71.492188 C 120.535156 71.773438 122.117188 72.441406 123.570312 73.484375 C 125.3125 74.730469 126.40625 76.464844 127.167969 78.375 L 126.554688 63.21875 C 126.554688 63.210938 126.554688 63.207031 126.554688 63.199219 L 122.082031 57.527344 C 121.894531 57.292969 121.933594 56.953125 122.171875 56.765625 C 122.40625 56.578125 122.75 56.617188 122.9375 56.855469 L 133.71875 70.511719 C 134.332031 69.570312 134.730469 68.933594 134.746094 68.910156 C 134.90625 68.660156 135.242188 68.578125 135.496094 68.738281 C 135.75 68.898438 135.832031 69.230469 135.671875 69.488281 C 135.449219 69.84375 130.183594 78.234375 127.824219 79.898438 C 127.789062 79.921875 127.757812 79.9375 127.722656 79.949219 C 128.160156 81.386719 128.46875 82.867188 128.761719 84.285156 C 129.117188 85.980469 129.457031 87.621094 129.988281 88.945312 C 141.027344 78.804688 145.144531 73.109375 145.199219 71.746094 C 145.324219 68.882812 141.609375 64.300781 141.574219 64.253906 C 140.777344 63.199219 139.507812 61.371094 138.039062 59.246094 C 135.242188 55.210938 131.765625 50.1875 129.015625 46.847656 C 126.042969 43.242188 121.265625 43.621094 118.105469 43.871094 C 117.558594 43.914062 117.0625 43.957031 116.628906 43.96875 C 116.59375 44 116.5625 44.023438 116.523438 44.046875 C 116.347656 44.136719 113.914062 45.394531 110.625 45.890625 C 110.859375 48.078125 111.894531 57.800781 112.957031 67.1875 C 112.988281 67.484375 112.777344 67.753906 112.476562 67.789062 C 112.457031 67.792969 112.4375 67.792969 112.417969 67.792969 C 112.144531 67.792969 111.910156 67.585938 111.875 67.308594 C 110.816406 57.941406 109.78125 48.238281 109.546875 46.019531 C 109.066406 46.0625 108.574219 46.085938 108.070312 46.085938 C 106.304688 46.085938 104.414062 45.789062 102.570312 44.972656 C 102.535156 44.953125 102.5 44.933594 102.46875 44.910156 C 102.351562 44.925781 102.230469 44.945312 102.101562 44.96875 C 99.785156 45.328125 96.898438 45.773438 95.183594 46.855469 C 92.375 48.632812 86.625 56.445312 86.148438 57.09375 L 87.109375 60.410156 C 87.195312 60.703125 87.027344 61.003906 86.738281 61.085938 C 86.6875 61.101562 86.636719 61.109375 86.585938 61.109375 C 86.351562 61.109375 86.132812 60.953125 86.066406 60.714844 Z M 76.648438 68.980469 L 75.667969 66.042969 C 74.460938 66.414062 73.207031 66.644531 71.921875 66.734375 L 72.703125 69.761719 C 73.242188 69.898438 74.269531 70.25 75.152344 71.074219 C 75.527344 70.132812 75.957031 69.28125 76.648438 68.980469 Z M 57.585938 49.742188 C 57.585938 51.320312 57.867188 52.832031 58.382812 54.234375 C 58.855469 54.425781 59.257812 54.445312 59.527344 54.296875 C 59.914062 54.082031 60.050781 53.488281 60.097656 53.027344 C 60.257812 51.484375 61.476562 51.386719 62.550781 51.300781 C 63.414062 51.230469 64.386719 51.148438 65.445312 50.582031 C 67.753906 49.339844 68.570312 47.300781 67.691406 44.976562 L 67.636719 44.832031 C 66.660156 42.257812 66.5 41.378906 69.527344 39.972656 C 70.085938 39.714844 70.410156 39.371094 70.527344 38.917969 C 70.71875 38.167969 70.296875 37.226562 69.980469 36.691406 C 63.085938 37.050781 57.585938 42.769531 57.585938 49.742188 Z M 58.910156 55.46875 C 61.039062 59.8125 65.511719 62.8125 70.667969 62.8125 C 77.164062 62.8125 82.566406 58.0625 83.578125 51.855469 C 83.367188 51.925781 83.140625 51.964844 82.921875 51.964844 C 82.734375 51.964844 82.550781 51.941406 82.371094 51.886719 C 81.472656 51.617188 80.996094 50.757812 81.101562 49.589844 L 81.144531 49.128906 C 81.332031 47.207031 81.425781 46.238281 79.890625 44.539062 C 77.910156 42.339844 78.386719 39.542969 78.410156 39.421875 C 78.417969 39.359375 78.441406 39.304688 78.46875 39.253906 C 76.371094 37.699219 73.84375 36.796875 71.210938 36.683594 C 71.527344 37.351562 71.816406 38.289062 71.585938 39.183594 C 71.386719 39.960938 70.851562 40.558594 69.988281 40.957031 C 67.730469 42 67.78125 42.140625 68.65625 44.441406 L 68.710938 44.585938 C 69.789062 47.429688 68.757812 50.027344 65.960938 51.53125 C 64.699219 52.210938 63.507812 52.308594 62.640625 52.375 C 61.402344 52.472656 61.238281 52.5625 61.179688 53.132812 C 61.070312 54.175781 60.695312 54.882812 60.0625 55.238281 C 59.777344 55.398438 59.457031 55.476562 59.105469 55.476562 C 59.042969 55.484375 58.976562 55.476562 58.910156 55.46875 Z M 83.753906 49.742188 C 83.753906 46.480469 82.539062 43.351562 80.339844 40.941406 C 80.054688 40.625 79.75 40.332031 79.441406 40.050781 C 79.40625 40.824219 79.496094 42.480469 80.699219 43.8125 C 82.554688 45.875 82.421875 47.285156 82.230469 49.238281 L 82.1875 49.691406 C 82.148438 50.136719 82.199219 50.699219 82.683594 50.84375 C 83.0625 50.957031 83.566406 50.773438 83.730469 50.464844 C 83.730469 50.464844 83.730469 50.464844 83.730469 50.460938 C 83.746094 50.226562 83.753906 49.984375 83.753906 49.742188 Z M 73.035156 35.183594 C 73.0625 35.269531 73.078125 35.316406 73.304688 35.273438 C 74.171875 35.113281 75.21875 33.359375 75.667969 32.292969 C 75.785156 32.015625 76.105469 31.886719 76.382812 32.003906 C 76.660156 32.117188 76.789062 32.4375 76.671875 32.714844 C 76.550781 33.003906 75.585938 35.207031 74.234375 36.042969 C 76.242188 36.566406 78.121094 37.53125 79.726562 38.859375 L 78.351562 34.105469 C 78.332031 34.042969 78.324219 33.972656 78.332031 33.90625 C 78.039062 32.820312 77.398438 31.089844 76.480469 30.625 C 76.179688 30.472656 75.875 30.476562 75.519531 30.640625 C 74.089844 31.300781 72.75 34.277344 73.035156 35.183594 Z M 71.222656 31.460938 C 70.417969 32.664062 69.976562 35.027344 70.21875 35.535156 C 70.980469 35.414062 71.664062 34.609375 71.867188 34.300781 C 71.902344 34.242188 71.949219 34.199219 72 34.164062 C 72.164062 33.351562 72.554688 32.421875 73.078125 31.597656 C 73.074219 31.589844 73.0625 31.585938 73.050781 31.578125 C 72.855469 31.414062 72.238281 31.011719 71.75 31.082031 C 71.625 31.101562 71.421875 31.15625 71.222656 31.460938 Z M 67.777344 35.507812 C 67.78125 35.507812 68.078125 35.628906 69.042969 34.957031 C 69.054688 34.953125 69.066406 34.949219 69.074219 34.941406 C 69.09375 33.863281 69.5 32.492188 69.941406 31.542969 C 69.472656 31.53125 68.683594 31.730469 68.171875 33.039062 C 67.539062 34.664062 67.660156 35.414062 67.777344 35.507812 Z M 70.667969 65.695312 C 74.113281 65.695312 77.371094 64.628906 80.121094 62.601562 L 79.1875 61.050781 C 76.816406 62.839844 73.863281 63.902344 70.667969 63.902344 C 64.691406 63.902344 59.566406 60.179688 57.492188 54.941406 C 57.445312 54.871094 57.410156 54.792969 57.402344 54.710938 C 56.820312 53.164062 56.496094 51.492188 56.496094 49.742188 C 56.496094 43.800781 60.179688 38.703125 65.390625 36.609375 L 64.660156 34.957031 C 58.683594 37.386719 54.703125 43.261719 54.703125 49.742188 C 54.699219 58.539062 61.863281 65.695312 70.667969 65.695312 Z M 70.105469 66.769531 L 69.148438 69.589844 L 71.535156 69.589844 L 70.8125 66.78125 C 70.761719 66.78125 70.714844 66.785156 70.667969 66.785156 C 70.480469 66.785156 70.296875 66.777344 70.105469 66.769531 Z M 64.488281 73.742188 L 73.910156 73.742188 C 73.914062 73.742188 73.917969 73.742188 73.921875 73.742188 C 74.023438 73.628906 74.117188 73.496094 74.210938 73.324219 C 74.394531 73.003906 74.5625 72.605469 74.71875 72.199219 C 73.71875 71.003906 72.191406 70.761719 72.175781 70.757812 C 72.097656 70.746094 72.027344 70.71875 71.964844 70.679688 L 68.691406 70.679688 C 68.648438 70.707031 68.597656 70.730469 68.542969 70.742188 C 66.324219 71.332031 65.070312 72.828125 64.488281 73.742188 Z M 53.765625 90.429688 C 53.859375 90.289062 54.667969 89.074219 55.769531 87.425781 C 55.371094 86.863281 54.476562 85.515625 52.808594 82.597656 C 46.742188 84.34375 44.5625 91.09375 44.542969 91.164062 C 44.535156 91.191406 44.515625 91.214844 44.503906 91.238281 C 47.484375 94.742188 52.367188 99.886719 55.046875 100.3125 C 58.800781 100.910156 60.476562 98.621094 63.921875 90.976562 C 67.265625 83.5625 68.847656 80.460938 68.859375 80.429688 C 68.933594 80.289062 69.0625 80.1875 69.214844 80.148438 C 69.261719 80.140625 73.820312 78.996094 77 77.871094 C 80.390625 76.667969 83.4375 73.511719 83.265625 72.613281 C 83.203125 72.285156 82.878906 71.972656 82.390625 71.769531 C 82.136719 72.464844 81.390625 74.148438 79.753906 75.496094 C 79.652344 75.582031 79.53125 75.621094 79.40625 75.621094 C 79.25 75.621094 79.09375 75.550781 78.984375 75.425781 C 78.792969 75.191406 78.828125 74.851562 79.058594 74.660156 C 80.382812 73.566406 81.042969 72.203125 81.304688 71.546875 C 80.5625 71.519531 79.671875 71.710938 78.828125 72.324219 C 78.792969 72.351562 78.757812 72.367188 78.71875 72.386719 C 78.507812 73.292969 77.765625 75.523438 75.332031 77.277344 C 75.234375 77.347656 75.125 77.378906 75.011719 77.378906 C 74.839844 77.378906 74.675781 77.300781 74.566406 77.15625 C 74.394531 76.910156 74.449219 76.570312 74.691406 76.398438 C 76.617188 75.011719 77.332031 73.285156 77.582031 72.410156 C 77.570312 72.347656 77.566406 72.28125 77.582031 72.210938 C 77.707031 71.5625 77.75 70.46875 77.457031 70.074219 C 77.398438 70 77.339844 69.96875 77.25 69.957031 C 76.742188 69.90625 76.277344 71.125 75.910156 72.101562 C 75.679688 72.707031 75.441406 73.34375 75.144531 73.867188 C 74.238281 75.472656 73.007812 75.320312 71.152344 75.089844 C 70.773438 75.042969 70.355469 74.992188 69.890625 74.949219 C 67.164062 74.683594 65.390625 75.535156 63.558594 77.972656 C 62.304688 79.640625 59.144531 84.332031 56.945312 87.609375 C 56.917969 87.691406 56.867188 87.773438 56.792969 87.839844 C 55.574219 89.660156 54.683594 91 54.660156 91.035156 C 54.554688 91.195312 54.378906 91.28125 54.207031 91.28125 C 54.101562 91.28125 54 91.25 53.90625 91.1875 C 53.671875 91.019531 53.605469 90.679688 53.765625 90.429688 Z M 23.039062 68.648438 C 24.316406 68.609375 25.554688 68.667969 26.621094 68.71875 C 27.933594 68.78125 29.179688 68.839844 29.652344 68.664062 C 31.207031 68.09375 32.511719 63.507812 31.953125 61.640625 C 31.734375 60.917969 31.140625 60.140625 30.566406 59.390625 C 29.609375 58.136719 28.617188 56.84375 29.253906 55.574219 C 29.769531 54.546875 30.820312 54.261719 32.148438 54.785156 C 32.894531 55.078125 33.640625 55.191406 34.367188 55.121094 C 36.769531 54.894531 41.136719 53.898438 43.410156 49.722656 C 43.507812 49.539062 43.683594 49.429688 43.90625 49.4375 C 44.113281 49.445312 44.300781 49.570312 44.382812 49.757812 C 44.453125 49.90625 46.050781 53.460938 46.207031 57.246094 L 46.234375 58.703125 C 46.640625 59.203125 47.199219 59.980469 47.199219 60.511719 C 47.199219 60.722656 47.199219 61.28125 45.132812 62.414062 C 44.605469 63.335938 43.875 64.097656 42.96875 64.679688 C 41.199219 65.820312 39.503906 66.226562 37.921875 65.882812 C 37.445312 67.40625 37.132812 69.128906 37.386719 69.527344 C 37.636719 69.90625 39.722656 70.457031 41.101562 70.820312 C 42.484375 71.183594 43.917969 71.558594 45.035156 72.019531 C 48.449219 73.417969 51.832031 78.683594 53.542969 81.699219 C 54.082031 82.648438 54.539062 83.433594 54.933594 84.089844 C 55.371094 83.347656 56.105469 81.488281 54.558594 78.871094 C 52.328125 75.089844 52.007812 72.101562 51.300781 65.566406 L 51.242188 65.023438 C 51.175781 64.371094 51.105469 63.679688 51.035156 62.960938 C 50.394531 56.316406 49.511719 47.222656 43.320312 45.3125 C 34.914062 42.722656 31.359375 46.292969 29.410156 49.210938 C 27.679688 51.804688 23.890625 65.519531 23.039062 68.648438 Z M 26.570312 69.804688 C 26.234375 69.789062 25.882812 69.773438 25.519531 69.757812 C 26.558594 74.242188 30.023438 75.949219 31.140625 76.390625 L 32.332031 74.875 C 29.28125 73.898438 28.34375 70.433594 28.210938 69.867188 C 27.730469 69.859375 27.183594 69.832031 26.570312 69.804688 Z M 38.820312 71.3125 C 37.558594 70.933594 36.785156 70.589844 36.476562 70.113281 C 35.777344 69.03125 36.722656 66.019531 37.027344 65.121094 C 37.046875 65.066406 37.070312 65.019531 37.105469 64.980469 C 37.222656 64.753906 37.492188 64.632812 37.75 64.710938 C 39.148438 65.160156 40.707031 64.839844 42.378906 63.757812 C 43.175781 63.242188 43.808594 62.566406 44.257812 61.742188 C 44.308594 61.648438 44.386719 61.574219 44.480469 61.523438 C 45.179688 61.152344 45.886719 60.671875 46.09375 60.441406 C 46 60.214844 45.644531 59.6875 45.28125 59.253906 C 45.199219 59.160156 45.152344 59.039062 45.148438 58.914062 L 45.117188 57.277344 C 45.019531 54.859375 44.261719 52.480469 43.789062 51.191406 C 41.984375 53.828125 39.386719 55.105469 37.152344 55.714844 L 39.988281 56.492188 C 40.453125 55.683594 41.289062 55.144531 42.25 55.144531 C 43.710938 55.144531 44.898438 56.398438 44.898438 57.941406 C 44.898438 59.488281 43.710938 60.742188 42.25 60.742188 C 40.785156 60.742188 39.597656 59.488281 39.597656 57.941406 C 39.597656 57.75 39.617188 57.5625 39.652344 57.375 L 35.085938 56.128906 C 34.867188 56.15625 34.660156 56.183594 34.464844 56.203125 C 33.566406 56.285156 32.648438 56.148438 31.746094 55.792969 C 30.585938 55.335938 30.324219 55.859375 30.222656 56.054688 C 29.890625 56.714844 30.636719 57.691406 31.425781 58.726562 C 32.0625 59.554688 32.71875 60.410156 32.992188 61.324219 C 33.660156 63.546875 32.292969 68.847656 30.027344 69.683594 C 29.832031 69.757812 29.59375 69.800781 29.324219 69.828125 C 29.582031 70.722656 30.625 73.621094 33.359375 74 C 37.511719 74.574219 38.65625 71.78125 38.820312 71.3125 Z M 40.546875 57.941406 C 40.546875 58.964844 41.3125 59.800781 42.25 59.800781 C 43.191406 59.800781 43.957031 58.964844 43.957031 57.941406 C 43.957031 56.917969 43.191406 56.085938 42.25 56.085938 C 41.3125 56.085938 40.546875 56.917969 40.546875 57.941406 Z M 36.195312 74.941406 L 36.804688 76.703125 C 37.902344 76.589844 41.070312 75.949219 42.785156 72.398438 C 42.148438 72.210938 41.484375 72.039062 40.828125 71.863281 C 40.488281 71.773438 40.167969 71.691406 39.871094 71.609375 C 39.734375 71.992188 38.859375 74.226562 36.195312 74.941406 Z M 12.589844 78.246094 C 13.796875 78.476562 16.296875 79.445312 18.800781 83.363281 L 21.660156 78.121094 C 21.796875 77.871094 22.097656 77.769531 22.355469 77.878906 L 27.261719 80 C 28.085938 79.183594 29.753906 78.214844 31.710938 78.984375 C 33.742188 79.792969 33.855469 81.816406 33.570312 83.09375 L 39.054688 85.714844 C 39.324219 85.84375 39.4375 86.167969 39.3125 86.4375 L 36.214844 92.96875 C 36.234375 92.972656 36.253906 92.980469 36.273438 92.988281 C 36.542969 93.066406 36.757812 93.214844 36.921875 93.414062 C 37.898438 93.125 40.894531 92.03125 41.816406 89.269531 C 41.878906 89.082031 42.042969 88.941406 42.242188 88.90625 C 42.441406 88.875 42.640625 88.953125 42.765625 89.109375 C 43.023438 89.445312 43.339844 89.839844 43.699219 90.277344 C 44.367188 88.546875 46.789062 83.328125 52.25 81.621094 C 49.5625 77.03125 46.804688 73.90625 44.625 73.011719 C 44.378906 72.910156 44.113281 72.816406 43.839844 72.722656 C 41.507812 77.75 36.476562 77.8125 36.425781 77.8125 C 36.191406 77.8125 35.984375 77.664062 35.910156 77.445312 L 35.109375 75.132812 C 34.894531 75.148438 34.671875 75.164062 34.441406 75.164062 C 34.152344 75.164062 33.84375 75.140625 33.523438 75.109375 L 31.753906 77.367188 C 31.648438 77.503906 31.488281 77.574219 31.324219 77.574219 C 31.273438 77.574219 31.21875 77.566406 31.167969 77.554688 C 30.941406 77.484375 25.652344 75.84375 24.390625 69.726562 C 21.402344 69.679688 17.933594 69.976562 16.179688 72.148438 C 15.09375 73.492188 13.84375 75.707031 12.589844 78.246094 Z M 9.644531 101.523438 C 15.671875 102.261719 26.089844 103.128906 30.398438 102.734375 C 34.65625 102.347656 36.058594 101.757812 36.996094 98.636719 C 36.023438 99.960938 34.503906 101.425781 32.441406 101.691406 C 32.417969 101.695312 32.394531 101.695312 32.375 101.695312 C 32.105469 101.695312 31.871094 101.496094 31.832031 101.21875 C 31.792969 100.921875 32.003906 100.648438 32.304688 100.609375 C 35.046875 100.257812 36.75 97.117188 37.179688 96.222656 C 37.175781 96.214844 37.167969 96.210938 37.167969 96.203125 C 37.113281 96.109375 36.960938 95.921875 36.835938 95.847656 C 36.339844 96.847656 34.554688 99.933594 31.4375 100.078125 C 31.429688 100.078125 31.417969 100.078125 31.414062 100.078125 C 31.121094 100.078125 30.882812 99.847656 30.867188 99.558594 C 30.851562 99.257812 31.085938 99.003906 31.386719 98.988281 C 34.351562 98.855469 35.960938 95.15625 35.976562 95.121094 C 35.976562 95.121094 35.976562 95.117188 35.976562 95.117188 C 36.085938 94.851562 36.203125 94.359375 36.101562 94.132812 C 36.085938 94.097656 36.058594 94.058594 35.964844 94.03125 C 35.695312 93.949219 35.230469 94.578125 34.824219 95.136719 C 34.480469 95.613281 34.082031 96.152344 33.601562 96.59375 C 32.160156 97.914062 28.359375 97.953125 28.320312 97.953125 C 28.027344 97.953125 27.785156 97.753906 27.714844 97.457031 C 27.558594 96.820312 28.335938 95.296875 29.542969 94.695312 C 30.960938 93.988281 31.203125 93.605469 31.101562 93.253906 C 31.046875 93.210938 30.84375 93.121094 30.417969 93.113281 C 30.398438 93.113281 30.386719 93.113281 30.367188 93.113281 C 29.140625 93.113281 27.269531 93.761719 25.8125 95.210938 C 25.804688 95.222656 25.789062 95.234375 25.773438 95.246094 C 23.867188 96.8125 23.257812 96.800781 21 96.050781 C 18.917969 95.359375 13.792969 94.050781 13.742188 94.039062 C 13.582031 94 13.445312 93.882812 13.382812 93.730469 C 13.3125 93.578125 13.324219 93.402344 13.402344 93.253906 L 18.207031 84.453125 C 18.191406 84.4375 18.171875 84.417969 18.160156 84.398438 C 15.46875 79.9375 12.808594 79.351562 12.09375 79.277344 C 9.117188 85.496094 6.246094 93.160156 5.640625 95.046875 C 5.167969 96.515625 4.730469 98.363281 5.546875 99.644531 C 6.183594 100.636719 7.5625 101.269531 9.644531 101.523438 Z M 5.742188 134.507812 L 19.835938 134.410156 C 19.839844 131.929688 19.96875 123.191406 21.636719 119.261719 C 21.730469 119.035156 21.964844 118.902344 22.210938 118.933594 C 22.453125 118.964844 22.644531 119.15625 22.679688 119.398438 C 22.691406 119.496094 24.054688 129.121094 27.585938 134.351562 C 27.585938 134.351562 27.589844 134.351562 27.589844 134.355469 L 42.640625 134.25 C 40.863281 130.300781 33.054688 112.71875 32.804688 108.644531 C 32.621094 105.597656 32.625 104.175781 32.644531 103.558594 C 32.003906 103.667969 31.292969 103.753906 30.492188 103.828125 C 29.730469 103.894531 28.785156 103.929688 27.710938 103.929688 C 22.726562 103.929688 14.96875 103.265625 9.929688 102.664062 C 9.003906 105.09375 4.085938 118.902344 5.742188 134.507812 Z M 21.988281 121.8125 C 21.003906 126.128906 20.929688 132.777344 20.929688 134.582031 L 26.449219 134.582031 C 23.972656 130.6875 22.597656 124.960938 21.988281 121.8125 Z M 67.613281 120.042969 C 68.070312 120.992188 68.167969 122.050781 67.886719 123.015625 C 67.59375 124.007812 66.949219 124.785156 66.058594 125.214844 C 65.585938 125.441406 65.089844 125.546875 64.589844 125.546875 C 63.160156 125.546875 61.746094 124.675781 61.039062 123.210938 C 60.082031 121.230469 60.78125 118.910156 62.59375 118.035156 C 64.402344 117.164062 66.65625 118.066406 67.613281 120.042969 Z M 66.632812 120.519531 C 66.113281 119.441406 65.082031 118.796875 64.066406 118.796875 C 63.722656 118.796875 63.382812 118.867188 63.0625 119.023438 C 61.792969 119.636719 61.320312 121.304688 62.015625 122.746094 C 62.710938 124.183594 64.308594 124.855469 65.582031 124.242188 C 66.191406 123.949219 66.636719 123.410156 66.835938 122.71875 C 67.046875 122 66.972656 121.222656 66.632812 120.519531 Z M 41.476562 57.828125 L 41.492188 57.824219 C 41.613281 57.769531 41.734375 57.722656 41.84375 57.714844 C 41.957031 57.699219 42.058594 57.722656 42.152344 57.765625 C 42.246094 57.808594 42.328125 57.875 42.402344 57.960938 C 42.46875 58.039062 42.546875 58.160156 42.574219 58.234375 C 42.585938 58.265625 42.601562 58.292969 42.617188 58.320312 C 42.730469 58.484375 42.960938 58.53125 43.125 58.417969 C 43.292969 58.304688 43.335938 58.078125 43.226562 57.910156 L 43.214844 57.894531 C 43.09375 57.71875 42.976562 57.605469 42.824219 57.488281 C 42.675781 57.375 42.503906 57.285156 42.3125 57.242188 C 42.125 57.199219 41.917969 57.210938 41.742188 57.269531 C 41.566406 57.320312 41.421875 57.421875 41.289062 57.519531 C 41.222656 57.570312 41.195312 57.664062 41.230469 57.742188 C 41.273438 57.828125 41.378906 57.875 41.476562 57.828125 Z M 71.136719 53.53125 C 70.351562 52.421875 70.449219 50.996094 71.394531 49.816406 C 72.097656 48.9375 73.175781 48.339844 74.199219 48.257812 C 74.222656 48.257812 76.566406 48.09375 77.550781 49.015625 C 77.839844 49.28125 77.988281 49.625 77.980469 49.996094 C 77.972656 50.335938 77.859375 50.617188 77.757812 50.867188 L 77.722656 50.957031 C 77.449219 51.648438 77.382812 52.386719 77.304688 53.171875 C 77.230469 53.976562 77.148438 54.804688 76.835938 55.605469 C 76.390625 56.75 75.589844 58.285156 74.316406 59.136719 C 74.011719 59.339844 73.664062 59.425781 73.308594 59.425781 C 72.6875 59.425781 72.050781 59.152344 71.636719 58.753906 C 70.96875 58.128906 70.851562 57.242188 71.320312 56.449219 C 72.074219 55.160156 72.171875 54.996094 71.136719 53.53125 Z M 72.246094 50.496094 C 71.9375 50.882812 71.300781 51.882812 72.023438 52.90625 C 73.296875 54.703125 73.226562 55.359375 72.25 57.003906 C 72.042969 57.363281 72.082031 57.6875 72.378906 57.96875 C 72.753906 58.320312 73.382812 58.445312 73.710938 58.230469 C 74.746094 57.539062 75.433594 56.207031 75.820312 55.207031 C 76.078125 54.546875 76.148438 53.828125 76.21875 53.066406 C 76.300781 52.242188 76.378906 51.390625 76.707031 50.558594 L 76.746094 50.460938 C 76.820312 50.28125 76.886719 50.113281 76.886719 49.976562 C 76.886719 49.933594 76.882812 49.882812 76.800781 49.804688 C 76.394531 49.421875 75.054688 49.273438 74.28125 49.339844 C 73.546875 49.402344 72.765625 49.84375 72.246094 50.496094 Z M 103.738281 29.988281 C 103.378906 30.015625 103.125 30.46875 103.167969 31 C 103.210938 31.527344 103.535156 31.933594 103.894531 31.90625 C 104.253906 31.875 104.511719 31.421875 104.464844 30.894531 C 104.421875 30.363281 104.097656 29.957031 103.738281 29.988281 Z M 98.910156 30.339844 C 98.550781 30.367188 98.296875 30.820312 98.339844 31.351562 C 98.382812 31.878906 98.707031 32.285156 99.066406 32.257812 C 99.425781 32.226562 99.683594 31.773438 99.636719 31.246094 C 99.589844 30.714844 99.269531 30.308594 98.910156 30.339844 Z M 100.140625 33.261719 C 100.195312 33.527344 100.332031 33.707031 100.542969 33.84375 C 100.75 33.980469 101.007812 34.019531 101.226562 34.003906 C 101.453125 33.992188 101.644531 33.921875 101.820312 33.839844 C 101.988281 33.746094 102.136719 33.636719 102.261719 33.519531 C 102.355469 33.433594 102.398438 33.296875 102.355469 33.167969 C 102.304688 32.980469 102.109375 32.878906 101.925781 32.929688 L 101.890625 32.9375 C 101.75 32.976562 101.625 33.023438 101.503906 33.054688 C 101.382812 33.078125 101.273438 33.105469 101.183594 33.101562 C 101.09375 33.105469 101.027344 33.085938 100.960938 33.074219 C 100.898438 33.0625 100.800781 33.015625 100.710938 33 L 100.425781 32.957031 C 100.398438 32.953125 100.363281 32.953125 100.335938 32.960938 C 100.195312 32.988281 100.109375 33.125 100.140625 33.261719 Z M 103.742188 35.304688 L 103.699219 35.324219 C 103.554688 35.398438 103.425781 35.488281 103.28125 35.558594 C 103.136719 35.613281 103.007812 35.699219 102.867188 35.738281 C 102.585938 35.851562 102.300781 35.898438 102.015625 35.914062 C 101.730469 35.925781 101.441406 35.890625 101.160156 35.8125 C 100.878906 35.738281 100.578125 35.613281 100.335938 35.492188 L 100.289062 35.464844 C 100.15625 35.398438 99.992188 35.421875 99.882812 35.535156 C 99.746094 35.671875 99.753906 35.890625 99.890625 36.023438 C 100.195312 36.320312 100.511719 36.511719 100.890625 36.648438 C 101.261719 36.78125 101.667969 36.84375 102.070312 36.8125 C 102.46875 36.773438 102.867188 36.675781 103.210938 36.480469 C 103.390625 36.402344 103.535156 36.273438 103.691406 36.167969 C 103.839844 36.042969 103.972656 35.914062 104.101562 35.777344 C 104.1875 35.6875 104.210938 35.554688 104.152344 35.433594 C 104.074219 35.289062 103.894531 35.226562 103.742188 35.304688 Z M 98.945312 29.28125 C 99.109375 29.296875 99.269531 29.316406 99.433594 29.375 C 99.605469 29.414062 99.773438 29.488281 99.984375 29.546875 L 100.027344 29.558594 C 100.105469 29.582031 100.191406 29.570312 100.265625 29.523438 C 100.40625 29.433594 100.449219 29.246094 100.355469 29.109375 C 100.214844 28.886719 100.019531 28.699219 99.769531 28.574219 C 99.527344 28.441406 99.234375 28.375 98.953125 28.386719 C 98.667969 28.394531 98.394531 28.46875 98.15625 28.59375 C 97.917969 28.726562 97.722656 28.878906 97.5625 29.113281 C 97.527344 29.164062 97.515625 29.226562 97.527344 29.289062 C 97.558594 29.40625 97.679688 29.480469 97.792969 29.449219 L 97.839844 29.4375 C 98.035156 29.390625 98.238281 29.335938 98.417969 29.304688 C 98.605469 29.277344 98.777344 29.265625 98.945312 29.28125 Z M 104.878906 28.371094 C 104.636719 28.238281 104.347656 28.171875 104.0625 28.183594 C 103.78125 28.191406 103.503906 28.265625 103.269531 28.390625 C 103.027344 28.523438 102.832031 28.675781 102.671875 28.910156 C 102.640625 28.960938 102.625 29.023438 102.640625 29.085938 C 102.667969 29.203125 102.789062 29.277344 102.90625 29.246094 L 102.953125 29.234375 C 103.144531 29.1875 103.347656 29.132812 103.53125 29.101562 C 103.714844 29.074219 103.890625 29.066406 104.050781 29.078125 C 104.214844 29.09375 104.375 29.113281 104.542969 29.171875 C 104.714844 29.210938 104.878906 29.285156 105.089844 29.34375 L 105.132812 29.355469 C 105.214844 29.378906 105.296875 29.367188 105.375 29.320312 C 105.515625 29.230469 105.554688 29.042969 105.464844 28.90625 C 105.328125 28.683594 105.128906 28.496094 104.878906 28.371094 Z M 100.351562 60.878906 L 100.082031 56.832031 C 100.0625 56.546875 100.269531 56.292969 100.554688 56.257812 L 107.175781 55.449219 C 107.320312 55.429688 107.460938 55.46875 107.578125 55.558594 C 107.691406 55.652344 107.765625 55.78125 107.78125 55.921875 L 108.253906 59.902344 C 108.289062 60.203125 108.078125 60.46875 107.78125 60.507812 L 100.960938 61.382812 C 100.9375 61.386719 100.914062 61.386719 100.890625 61.386719 C 100.761719 61.386719 100.644531 61.34375 100.546875 61.265625 C 100.429688 61.167969 100.355469 61.027344 100.351562 60.878906 Z M 101.199219 57.269531 L 101.394531 60.230469 L 107.109375 59.496094 L 106.765625 56.589844 Z M 114.332031 56.878906 C 114.863281 56.878906 115.296875 56.449219 115.296875 55.917969 C 115.296875 55.390625 114.863281 54.957031 114.332031 54.957031 C 113.804688 54.957031 113.371094 55.390625 113.371094 55.917969 C 113.371094 56.449219 113.800781 56.878906 114.332031 56.878906 Z M 113.773438 60.417969 C 113.773438 60.949219 114.207031 61.378906 114.734375 61.378906 C 115.265625 61.378906 115.699219 60.949219 115.699219 60.417969 C 115.699219 59.890625 115.265625 59.457031 114.734375 59.457031 C 114.207031 59.457031 113.773438 59.890625 113.773438 60.417969 Z M 113.773438 60.417969 " fill-opacity="1" fill-rule="nonzero"/></g></svg>