<svg xmlns="http://www.w3.org/2000/svg" xmlns:xlink="http://www.w3.org/1999/xlink" width="200" zoomAndPan="magnify" viewBox="0 0 150 149.999998" height="200" preserveAspectRatio="xMidYMid meet" version="1.0"><defs><clipPath id="07937e8173"><path d="M 28 87 L 63 87 L 63 125.71875 L 28 125.71875 Z M 28 87 " clip-rule="nonzero"/></clipPath><clipPath id="b472ef0120"><path d="M 78 115 L 145.308594 115 L 145.308594 120 L 78 120 Z M 78 115 " clip-rule="nonzero"/></clipPath></defs><path fill="#000000" d="M 41.09375 39.519531 C 40.929688 40.871094 40.769531 42.238281 40.953125 43.589844 C 41.015625 44.019531 41.113281 44.457031 41.332031 44.832031 C 41.554688 45.210938 41.914062 45.523438 42.34375 45.601562 C 42.742188 45.226562 43.289062 44.777344 43.53125 44.285156 C 43.835938 43.652344 43.835938 42.917969 43.761719 42.21875 C 43.683594 41.496094 43.523438 40.753906 43.105469 40.160156 C 42.683594 39.566406 41.808594 39.398438 41.09375 39.519531 Z M 41.09375 39.519531 " fill-opacity="1" fill-rule="nonzero"/><g clip-path="url(#07937e8173)"><path fill="#007785" d="M 62.109375 119.523438 C 62.074219 114.203125 61.546875 108.285156 61.433594 104.976562 C 60.894531 88.894531 60.023438 87.199219 60.023438 87.199219 L 43.90625 88.734375 L 30.972656 90.3125 L 28.429688 125.617188 L 45.546875 125.667969 L 46.679688 115.738281 L 46.851562 125.671875 L 62.09375 125.71875 Z M 62.109375 119.523438 " fill-opacity="1" fill-rule="nonzero"/></g><path fill="#000000" d="M 46.679688 115.855469 C 46.632812 115.855469 46.589844 115.828125 46.570312 115.78125 C 46.542969 115.722656 46.574219 115.65625 46.632812 115.628906 L 53.496094 112.675781 C 53.558594 112.652344 53.625 112.679688 53.652344 112.738281 C 53.675781 112.796875 53.648438 112.867188 53.589844 112.890625 L 46.722656 115.84375 C 46.710938 115.851562 46.695312 115.855469 46.679688 115.855469 Z M 46.679688 115.855469 " fill-opacity="1" fill-rule="nonzero"/><g clip-path="url(#b472ef0120)"><path fill="#ffffff" d="M 78.054688 115.507812 L 145.230469 115.507812 L 145.230469 119.132812 L 78.054688 119.132812 Z M 78.054688 115.507812 " fill-opacity="1" fill-rule="nonzero"/><path fill="#000000" d="M 78.054688 115.507812 L 145.230469 115.507812 L 145.230469 119.132812 L 78.054688 119.132812 Z M 78.054688 115.507812 " fill-opacity="0.2667" fill-rule="nonzero"/></g><path fill="#000000" d="M 113.34375 64.722656 L 109.277344 87.59375 L 128.511719 89.4375 L 127.820312 68.558594 Z M 113.34375 64.722656 " fill-opacity="1" fill-rule="nonzero"/><path fill="#f8b498" d="M 120.164062 72.773438 L 121.117188 86.960938 L 114.175781 87.101562 L 114.328125 77.75 Z M 120.164062 72.773438 " fill-opacity="1" fill-rule="nonzero"/><path fill="#ff3e4d" d="M 111.949219 85.574219 L 111.128906 85.671875 C 109.148438 85.914062 106.765625 87.777344 106.054688 89.640625 L 100.710938 102.164062 L 102.945312 92.867188 L 96.292969 91.523438 L 93.621094 104.277344 C 93.078125 106.183594 92.984375 108.191406 93.34375 110.140625 C 93.730469 112.238281 95.542969 113.773438 97.679688 113.8125 C 100.097656 113.859375 102.359375 112.621094 103.625 110.558594 L 107.910156 103.582031 L 112.722656 115.257812 L 137.492188 117.066406 C 140.246094 117.269531 142.734375 115.433594 143.351562 112.742188 C 143.890625 110.402344 143.558594 107.949219 142.417969 105.835938 L 134.898438 90.789062 C 134.558594 90.109375 134.105469 89.449219 133.570312 88.84375 C 131.601562 86.613281 128.710938 85.410156 125.730469 85.398438 L 121.90625 85.382812 Z M 111.949219 85.574219 " fill-opacity="1" fill-rule="nonzero"/><path fill="#000000" d="M 110.550781 66.589844 C 110.550781 66.589844 105.667969 62.773438 110.664062 59.644531 C 114.078125 57.507812 119.898438 60.339844 119.898438 60.339844 Z M 110.550781 66.589844 " fill-opacity="1" fill-rule="nonzero"/><path fill="#000000" d="M 120.171875 60.398438 C 120.777344 60.523438 121.367188 60.695312 121.941406 60.917969 C 122.511719 61.140625 123.058594 61.402344 123.578125 61.714844 C 124.097656 62.023438 124.578125 62.371094 125.023438 62.757812 C 125.46875 63.140625 125.867188 63.558594 126.222656 64.003906 C 126.574219 64.453125 126.878906 64.921875 127.125 65.414062 C 127.375 65.902344 127.566406 66.40625 127.703125 66.925781 C 127.835938 67.441406 127.910156 67.960938 127.925781 68.484375 C 127.941406 69.003906 127.898438 69.519531 127.792969 70.027344 C 127.6875 70.535156 127.527344 71.027344 127.304688 71.5 C 127.085938 71.972656 126.808594 72.421875 126.480469 72.84375 C 126.152344 73.265625 125.777344 73.652344 125.355469 74.003906 C 124.929688 74.355469 124.46875 74.667969 123.96875 74.941406 C 123.464844 75.210938 122.933594 75.433594 122.371094 75.613281 C 121.8125 75.792969 121.230469 75.921875 120.632812 76 C 120.03125 76.078125 119.425781 76.109375 118.8125 76.085938 C 118.199219 76.0625 117.589844 75.988281 116.984375 75.863281 C 116.378906 75.738281 115.789062 75.566406 115.21875 75.34375 C 114.644531 75.121094 114.097656 74.859375 113.578125 74.546875 C 113.0625 74.238281 112.578125 73.890625 112.132812 73.507812 C 111.6875 73.121094 111.289062 72.703125 110.9375 72.257812 C 110.582031 71.808594 110.28125 71.339844 110.03125 70.847656 C 109.78125 70.359375 109.589844 69.855469 109.457031 69.335938 C 109.320312 68.820312 109.246094 68.300781 109.230469 67.777344 C 109.214844 67.257812 109.261719 66.742188 109.363281 66.234375 C 109.46875 65.726562 109.632812 65.234375 109.851562 64.761719 C 110.074219 64.289062 110.347656 63.839844 110.675781 63.417969 C 111.003906 62.996094 111.378906 62.609375 111.804688 62.257812 C 112.226562 61.90625 112.6875 61.59375 113.191406 61.320312 C 113.691406 61.050781 114.222656 60.828125 114.785156 60.648438 C 115.347656 60.46875 115.925781 60.339844 116.527344 60.261719 C 117.125 60.183594 117.730469 60.152344 118.34375 60.175781 C 118.957031 60.199219 119.570312 60.273438 120.171875 60.398438 Z M 120.171875 60.398438 " fill-opacity="1" fill-rule="nonzero"/><path fill="#000000" d="M 114.328125 77.75 L 119.441406 77.128906 L 114.246094 82.679688 Z M 114.328125 77.75 " fill-opacity="1" fill-rule="nonzero"/><path fill="#f8b498" d="M 121.769531 73.457031 C 119.4375 79.566406 114.34375 79.042969 114.34375 79.042969 C 110.011719 78.976562 107.898438 76.195312 107.492188 72.804688 C 107.183594 70.199219 108.921875 66.335938 109.855469 64.128906 C 110.167969 63.386719 110.703125 62.746094 111.414062 62.359375 C 117.511719 59.042969 125.480469 63.726562 121.769531 73.457031 Z M 121.769531 73.457031 " fill-opacity="1" fill-rule="nonzero"/><path fill="#000000" d="M 110.554688 72.394531 L 109.972656 72.160156 C 109.78125 72.0625 109.699219 71.832031 109.796875 71.617188 L 110.394531 70.652344 C 110.4375 70.582031 110.53125 70.5625 110.597656 70.605469 C 110.667969 70.648438 110.6875 70.738281 110.644531 70.808594 L 110.058594 71.753906 C 110.03125 71.808594 110.054688 71.871094 110.097656 71.890625 L 110.667969 72.125 C 110.742188 72.152344 110.777344 72.238281 110.75 72.316406 C 110.726562 72.371094 110.667969 72.40625 110.613281 72.40625 C 110.59375 72.40625 110.574219 72.402344 110.554688 72.394531 Z M 110.554688 72.394531 " fill-opacity="1" fill-rule="nonzero"/><path fill="#000000" d="M 114.527344 70.214844 C 114.527344 70.378906 114.46875 70.519531 114.351562 70.636719 C 114.234375 70.753906 114.09375 70.8125 113.929688 70.8125 C 113.761719 70.8125 113.621094 70.753906 113.503906 70.636719 C 113.386719 70.519531 113.328125 70.378906 113.328125 70.214844 C 113.328125 70.046875 113.386719 69.90625 113.503906 69.789062 C 113.621094 69.671875 113.761719 69.613281 113.929688 69.613281 C 114.09375 69.613281 114.234375 69.671875 114.351562 69.789062 C 114.46875 69.90625 114.527344 70.046875 114.527344 70.214844 Z M 114.527344 70.214844 " fill-opacity="1" fill-rule="nonzero"/><path fill="#000000" d="M 109.367188 68.675781 C 109.0625 68.625 108.777344 68.828125 108.726562 69.128906 C 108.675781 69.433594 108.878906 69.71875 109.179688 69.769531 C 109.484375 69.820312 109.769531 69.617188 109.820312 69.3125 C 109.871094 69.011719 109.667969 68.726562 109.367188 68.675781 Z M 109.367188 68.675781 " fill-opacity="1" fill-rule="nonzero"/><path fill="#000000" d="M 109.707031 73.675781 C 109.640625 73.628906 109.621094 73.539062 109.664062 73.472656 C 109.710938 73.402344 109.800781 73.382812 109.867188 73.429688 C 109.882812 73.4375 111.476562 74.457031 113.066406 73.53125 C 113.140625 73.492188 113.230469 73.515625 113.269531 73.585938 C 113.308594 73.65625 113.285156 73.746094 113.214844 73.789062 C 112.660156 74.109375 112.113281 74.222656 111.617188 74.222656 C 110.558594 74.222656 109.753906 73.707031 109.707031 73.675781 Z M 109.707031 73.675781 " fill-opacity="1" fill-rule="nonzero"/><path fill="#000000" d="M 109.546875 65.503906 C 108.761719 65.511719 108.269531 65.902344 108.023438 66.164062 C 107.90625 66.296875 107.875 66.484375 107.945312 66.648438 C 108.035156 66.847656 108.257812 66.957031 108.46875 66.90625 C 108.847656 66.8125 109.253906 66.824219 109.902344 66.824219 C 110.75 66.828125 110.640625 66.128906 110.640625 66.128906 C 110.640625 66.128906 110.554688 65.492188 109.546875 65.503906 Z M 109.546875 65.503906 " fill-opacity="1" fill-rule="nonzero"/><path fill="#000000" d="M 115.082031 66.433594 C 116.046875 66.71875 116.933594 67.597656 117.148438 67.933594 C 117.253906 68.097656 117.226562 68.289062 117.085938 68.417969 C 116.910156 68.578125 116.601562 68.601562 116.355469 68.476562 C 115.921875 68.257812 115.007812 67.789062 114.210938 67.566406 C 113.167969 67.269531 113.53125 66.644531 113.53125 66.644531 C 113.53125 66.644531 113.847656 66.070312 115.082031 66.433594 Z M 115.082031 66.433594 " fill-opacity="1" fill-rule="nonzero"/><path fill="#000000" d="M 124.609375 67.390625 C 111.820312 65.964844 113.671875 60.882812 113.671875 60.882812 C 126.582031 60.1875 124.609375 67.390625 124.609375 67.390625 Z M 124.609375 67.390625 " fill-opacity="1" fill-rule="nonzero"/><path fill="#000000" d="M 127.125 69.335938 L 120.285156 73.410156 L 120.859375 65.660156 Z M 127.125 69.335938 " fill-opacity="1" fill-rule="nonzero"/><path fill="#f8b498" d="M 123.652344 71.527344 C 122.285156 70.785156 120.578125 71.292969 119.835938 72.65625 C 119.09375 74.023438 119.601562 75.730469 120.964844 76.46875 C 122.332031 77.210938 124.042969 76.707031 124.78125 75.339844 C 125.523438 73.976562 125.019531 72.269531 123.652344 71.527344 Z M 123.652344 71.527344 " fill-opacity="1" fill-rule="nonzero"/><path fill="#f8b498" d="M 121.179688 74.429688 C 121.980469 72.445312 123.71875 73.449219 123.71875 73.449219 " fill-opacity="1" fill-rule="nonzero"/><path fill="#f8b498" d="M 115.289062 89.128906 C 109.894531 89.128906 111.949219 85.574219 111.949219 85.574219 L 113.859375 85.269531 L 123.128906 85.359375 C 123.003906 85.921875 120.683594 89.128906 115.289062 89.128906 Z M 115.289062 89.128906 " fill-opacity="1" fill-rule="nonzero"/><path fill="#f8b498" d="M 119.195312 109.664062 L 112.246094 110.621094 L 112.371094 114.09375 L 119.347656 115.527344 C 119.347656 115.527344 119.226562 110.859375 119.195312 109.664062 Z M 119.195312 109.664062 " fill-opacity="1" fill-rule="nonzero"/><path fill="#000000" d="M 107.769531 103.632812 C 107.761719 103.605469 106.753906 100.75 107.3125 97.5625 C 107.867188 94.402344 108.335938 92.980469 108.339844 92.964844 C 108.367188 92.890625 108.449219 92.847656 108.527344 92.871094 C 108.605469 92.898438 108.644531 92.980469 108.621094 93.058594 C 108.617188 93.074219 108.152344 94.480469 107.601562 97.613281 C 107.054688 100.722656 108.039062 103.503906 108.046875 103.535156 C 108.074219 103.609375 108.035156 103.695312 107.960938 103.722656 C 107.941406 103.726562 107.925781 103.730469 107.910156 103.730469 C 107.847656 103.730469 107.792969 103.691406 107.769531 103.632812 Z M 107.769531 103.632812 " fill-opacity="1" fill-rule="nonzero"/><path fill="#000000" d="M 110.460938 102.863281 L 111.019531 101.765625 L 112.21875 102.351562 L 111.6875 103.449219 Z M 110.460938 102.863281 " fill-opacity="1" fill-rule="nonzero"/><path fill="#000000" d="M 104.628906 116.335938 L 104.445312 117.019531 C 104.40625 117.167969 104.515625 117.210938 104.605469 117.082031 L 105.015625 116.488281 C 104.949219 116.320312 104.800781 116.25 104.628906 116.335938 Z M 104.628906 116.335938 " fill-opacity="1" fill-rule="nonzero"/><path fill="#007785" d="M 110.507812 102.757812 L 111.125 103.054688 L 111.738281 103.34375 L 106.5625 114.363281 L 106.53125 114.421875 L 106.523438 114.414062 L 104.976562 116.566406 C 104.910156 116.410156 104.757812 116.34375 104.59375 116.410156 L 105.210938 113.878906 L 105.195312 113.871094 L 105.230469 113.792969 Z M 110.507812 102.757812 " fill-opacity="1" fill-rule="nonzero"/><path fill="#f8b498" d="M 110.96875 101.871094 L 111.109375 101.59375 C 111.304688 101.207031 111.726562 101.027344 112.054688 101.191406 C 112.371094 101.347656 112.484375 101.773438 112.308594 102.152344 L 112.171875 102.453125 Z M 110.96875 101.871094 " fill-opacity="1" fill-rule="nonzero"/><path fill="#f8b498" d="M 101.550781 115.980469 C 101.835938 116.085938 102.148438 116.03125 102.375 115.828125 L 104.339844 114.070312 C 105.25 113.257812 106.691406 112.691406 107.855469 113.28125 C 108.214844 113.464844 108.507812 113.765625 108.832031 114 C 109.65625 114.597656 110.652344 114.539062 111.605469 114.320312 C 112.277344 114.167969 112.921875 113.890625 113.5 113.515625 C 113.671875 113.402344 113.84375 113.28125 114.003906 113.144531 C 114.027344 113.125 114.171875 113.03125 114.175781 112.996094 C 114.175781 112.992188 114.28125 110.507812 114.28125 110.507812 L 107 110.398438 C 105.644531 110.378906 104.359375 110.957031 103.476562 111.980469 L 101.195312 114.628906 C 100.816406 115.066406 101 115.769531 101.550781 115.980469 Z M 101.550781 115.980469 " fill-opacity="1" fill-rule="nonzero"/><path fill="#000000" d="M 119.261719 109.652344 C 119.246094 109.570312 119.296875 109.496094 119.378906 109.480469 L 132.320312 107.121094 L 128.378906 98.78125 C 128.34375 98.707031 128.375 98.621094 128.449219 98.585938 C 128.523438 98.550781 128.609375 98.582031 128.644531 98.65625 L 132.667969 107.167969 C 132.6875 107.210938 132.6875 107.257812 132.667969 107.300781 C 132.644531 107.339844 132.609375 107.367188 132.5625 107.378906 L 119.429688 109.769531 C 119.421875 109.773438 119.414062 109.773438 119.40625 109.773438 C 119.335938 109.773438 119.273438 109.722656 119.261719 109.652344 Z M 119.261719 109.652344 " fill-opacity="1" fill-rule="nonzero"/><path fill="#007785" d="M 76.601562 91.066406 L 108.992188 91.066406 L 116.625 114.820312 L 84.265625 114.820312 Z M 76.601562 91.066406 " fill-opacity="1" fill-rule="nonzero"/><path fill="#007785" d="M 84.265625 114.246094 L 127.125 114.246094 L 127.125 117.28125 L 84.265625 117.28125 Z M 84.265625 114.246094 " fill-opacity="1" fill-rule="nonzero"/><path fill="#ffffff" d="M 97.160156 105.71875 C 97.160156 106 97.105469 106.269531 97 106.53125 C 96.890625 106.789062 96.738281 107.019531 96.539062 107.214844 C 96.339844 107.414062 96.113281 107.566406 95.851562 107.675781 C 95.59375 107.78125 95.324219 107.835938 95.042969 107.835938 C 94.761719 107.835938 94.488281 107.78125 94.230469 107.675781 C 93.972656 107.566406 93.742188 107.414062 93.542969 107.214844 C 93.34375 107.019531 93.191406 106.789062 93.082031 106.53125 C 92.976562 106.269531 92.921875 106 92.921875 105.71875 C 92.921875 105.4375 92.976562 105.167969 93.082031 104.910156 C 93.191406 104.648438 93.34375 104.421875 93.542969 104.222656 C 93.742188 104.023438 93.972656 103.871094 94.230469 103.761719 C 94.488281 103.65625 94.761719 103.601562 95.042969 103.601562 C 95.324219 103.601562 95.59375 103.65625 95.851562 103.761719 C 96.113281 103.871094 96.339844 104.023438 96.539062 104.222656 C 96.738281 104.421875 96.890625 104.648438 97 104.910156 C 97.105469 105.167969 97.160156 105.4375 97.160156 105.71875 Z M 97.160156 105.71875 " fill-opacity="1" fill-rule="nonzero"/><path fill="#f8b498" d="M 32.792969 66.730469 C 32.792969 66.730469 16.660156 88.242188 16.660156 88.242188 C 13.078125 93.207031 5.160156 87.867188 8.472656 82.6875 L 17.945312 68.535156 Z M 32.792969 66.730469 " fill-opacity="1" fill-rule="nonzero"/><path fill="#ff3e4d" d="M 27.476562 80.570312 L 13.035156 71.074219 C 16.632812 65.507812 25.75 50.089844 31.730469 52.058594 C 47.992188 58.4375 30.152344 76.175781 27.476562 80.570312 Z M 27.476562 80.570312 " fill-opacity="1" fill-rule="nonzero"/><path fill="#ff3e4d" d="M 59.191406 69.40625 L 66.292969 67.769531 C 65.878906 52.5625 55.527344 51.886719 55.527344 51.886719 Z M 59.191406 69.40625 " fill-opacity="1" fill-rule="nonzero"/><path fill="#ff3e4d" d="M 26.4375 61.742188 L 30.546875 91.523438 L 56.082031 91.523438 C 58.386719 81.464844 66.710938 54.945312 56.882812 52.160156 C 48.199219 49.699219 41.796875 49.695312 30.230469 51.820312 C 26.613281 52.042969 27.496094 59.347656 26.4375 61.742188 Z M 26.4375 61.742188 " fill-opacity="1" fill-rule="nonzero"/><path fill="#000000" d="M 29.660156 78.945312 L 26.90625 67.316406 C 26.894531 67.25 26.933594 67.183594 27 67.167969 C 27.070312 67.152344 27.132812 67.191406 27.148438 67.257812 L 29.902344 78.890625 C 29.917969 78.957031 29.878906 79.023438 29.8125 79.039062 C 29.800781 79.042969 29.792969 79.042969 29.785156 79.042969 C 29.726562 79.042969 29.675781 79.003906 29.660156 78.945312 Z M 29.660156 78.945312 " fill-opacity="1" fill-rule="nonzero"/><path fill="#000000" d="M 59.453125 75.0625 C 59.386719 75.050781 59.335938 74.988281 59.347656 74.921875 L 61.003906 63.289062 C 61.015625 63.222656 61.074219 63.175781 61.144531 63.183594 C 61.214844 63.195312 61.261719 63.257812 61.25 63.324219 L 59.59375 74.957031 C 59.585938 75.019531 59.53125 75.0625 59.46875 75.0625 C 59.464844 75.0625 59.457031 75.0625 59.453125 75.0625 Z M 59.453125 75.0625 " fill-opacity="1" fill-rule="nonzero"/><path fill="#f8b498" d="M 42.234375 80.085938 L 51.445312 80.402344 L 55.527344 71.722656 C 44.996094 67.519531 40.976562 74.628906 40.976562 74.628906 Z M 42.234375 80.085938 " fill-opacity="1" fill-rule="nonzero"/><path fill="#f8b498" d="M 42.6875 79.925781 L 14.332031 90.023438 L 12.675781 79.480469 L 41.617188 74.519531 Z M 42.6875 79.925781 " fill-opacity="1" fill-rule="nonzero"/><path fill="#000000" d="M 15.832031 78.9375 C 15.820312 78.871094 15.867188 78.808594 15.933594 78.796875 L 22.851562 77.609375 C 22.921875 77.597656 22.984375 77.644531 22.992188 77.710938 C 23.003906 77.777344 22.960938 77.84375 22.890625 77.855469 L 15.976562 79.039062 C 15.96875 79.042969 15.960938 79.042969 15.953125 79.042969 C 15.894531 79.042969 15.839844 79 15.832031 78.9375 Z M 15.832031 78.9375 " fill-opacity="1" fill-rule="nonzero"/><path fill="#ffffff" d="M 82.1875 67.148438 C 73.632812 64.253906 52.71875 67.769531 52.71875 67.769531 L 41.066406 95.113281 L 42.984375 97.242188 Z M 82.1875 67.148438 " fill-opacity="1" fill-rule="nonzero"/><path fill="#000000" d="M 69.785156 90.996094 C 68.03125 94.402344 63.203125 94.425781 63.203125 94.425781 L 76.570312 67.914062 L 82.183594 67.148438 Z M 69.785156 90.996094 " fill-opacity="1" fill-rule="nonzero"/><path fill="#007785" d="M 64.105469 94.300781 L 42.984375 97.242188 L 54.355469 69.835938 L 77.640625 67.769531 Z M 64.105469 94.300781 " fill-opacity="1" fill-rule="nonzero"/><path fill="#000000" d="M 64.105469 94.300781 L 42.984375 97.242188 L 54.355469 69.835938 L 77.640625 67.769531 Z M 64.105469 94.300781 " fill-opacity="0.4588" fill-rule="nonzero"/><path fill="#ffffff" d="M 71.554688 66.5 L 76.761719 54.550781 L 79.445312 54.550781 L 82.183594 67.148438 Z M 71.554688 66.5 " fill-opacity="1" fill-rule="nonzero"/><path fill="#f8b498" d="M 72.957031 84.847656 L 67.207031 80.648438 C 66.867188 80.402344 66.761719 79.945312 66.957031 79.574219 C 67.171875 79.171875 67.660156 79.011719 68.070312 79.207031 L 72.332031 81.238281 L 67.335938 77.601562 C 67.023438 77.378906 66.921875 76.960938 67.09375 76.617188 C 67.289062 76.222656 67.769531 76.0625 68.164062 76.265625 L 73.070312 78.808594 L 67.609375 74.535156 C 67.234375 74.242188 67.132812 73.714844 67.378906 73.304688 C 67.65625 72.84375 68.261719 72.707031 68.710938 73.003906 L 74.605469 76.878906 L 70.703125 73.136719 C 70.417969 72.859375 70.417969 72.402344 70.703125 72.128906 C 70.945312 71.894531 71.316406 71.867188 71.589844 72.058594 L 78.164062 76.679688 C 78.164062 76.679688 80.707031 78.804688 78.082031 82.804688 C 75.457031 86.804688 72.359375 86.046875 72.359375 86.046875 Z M 72.957031 84.847656 " fill-opacity="1" fill-rule="nonzero"/><path fill="#000000" d="M 56.015625 36.761719 C 61.972656 31.042969 55.542969 28.695312 55.542969 28.695312 Z M 56.015625 36.761719 " fill-opacity="1" fill-rule="nonzero"/><path fill="#f8b498" d="M 44.140625 38.082031 L 40.476562 52.472656 L 49.046875 52.75 L 50.429688 44.839844 Z M 44.140625 38.082031 " fill-opacity="1" fill-rule="nonzero"/><path fill="#000000" d="M 50.28125 45.722656 L 43.636719 42.3125 C 43.441406 47.675781 49.582031 49.664062 49.582031 49.664062 Z M 50.28125 45.722656 " fill-opacity="1" fill-rule="nonzero"/><path fill="#f8b498" d="M 41.941406 37.523438 C 41.671875 45.183594 46.128906 46.179688 46.128906 46.179688 C 50.019531 47.953125 53.011719 46.574219 54.789062 43.6875 C 56.183594 41.417969 56.511719 35.808594 56.585938 33.515625 C 56.609375 32.828125 55.996094 30.789062 55.601562 30.222656 C 51.605469 24.464844 42.339844 26.105469 41.941406 37.523438 Z M 41.941406 37.523438 " fill-opacity="1" fill-rule="nonzero"/><path fill="#000000" d="M 54.332031 38.894531 C 54.636719 38.890625 54.890625 39.132812 54.898438 39.4375 C 54.90625 39.742188 54.664062 39.996094 54.355469 40 C 54.050781 40.007812 53.796875 39.765625 53.792969 39.460938 C 53.785156 39.15625 54.027344 38.902344 54.332031 38.894531 Z M 54.332031 38.894531 " fill-opacity="1" fill-rule="nonzero"/><path fill="#000000" d="M 49.539062 37.867188 C 49.84375 37.859375 50.097656 38.101562 50.105469 38.40625 C 50.113281 38.710938 49.871094 38.964844 49.5625 38.972656 C 49.257812 38.976562 49.003906 38.734375 49 38.429688 C 48.992188 38.125 49.234375 37.875 49.539062 37.867188 Z M 49.539062 37.867188 " fill-opacity="1" fill-rule="nonzero"/><path fill="#000000" d="M 51.574219 41.613281 C 51.574219 41.523438 51.640625 41.453125 51.730469 41.449219 L 52.480469 41.429688 L 52.335938 39.640625 C 52.332031 39.550781 52.398438 39.472656 52.484375 39.464844 C 52.570312 39.453125 52.648438 39.527344 52.65625 39.613281 L 52.8125 41.570312 C 52.816406 41.613281 52.800781 41.65625 52.773438 41.691406 C 52.742188 41.722656 52.699219 41.742188 52.65625 41.742188 L 51.738281 41.769531 C 51.738281 41.769531 51.734375 41.769531 51.734375 41.769531 C 51.648438 41.769531 51.578125 41.699219 51.574219 41.613281 Z M 51.574219 41.613281 " fill-opacity="1" fill-rule="nonzero"/><path fill="#000000" d="M 50.585938 34.582031 C 49.007812 34.222656 48.011719 34.683594 47.382812 35.003906 C 47.074219 35.15625 46.882812 35.46875 46.976562 35.800781 C 47.074219 36.148438 47.429688 36.34375 47.78125 36.257812 C 48.722656 36.03125 49.71875 36.042969 50.398438 36.09375 C 50.847656 36.128906 51.226562 35.769531 51.21875 35.316406 C 51.207031 34.953125 50.941406 34.664062 50.585938 34.582031 Z M 50.585938 34.582031 " fill-opacity="1" fill-rule="nonzero"/><path fill="#000000" d="M 54.179688 35.394531 C 55.242188 35.539062 55.722656 36.273438 56.019531 36.761719 C 56.164062 37.003906 56.195312 37.355469 56.046875 37.636719 C 55.890625 37.933594 55.621094 38.007812 55.429688 37.824219 C 54.917969 37.324219 54.308594 37.03125 53.878906 36.875 C 53.597656 36.769531 53.464844 36.316406 53.59375 35.894531 C 53.699219 35.554688 53.941406 35.363281 54.179688 35.394531 Z M 54.179688 35.394531 " fill-opacity="1" fill-rule="nonzero"/><path fill="#000000" d="M 39.984375 32.371094 C 40.363281 30.328125 41.542969 28.496094 43.527344 27.359375 C 46.066406 25.90625 49.363281 25.5625 52.3125 25.910156 C 54.78125 26.203125 56.871094 27.425781 57.484375 29.65625 C 58.402344 32.984375 55.484375 34.027344 54.015625 33.953125 C 53.277344 33.914062 52.582031 33.675781 51.945312 33.34375 C 49.664062 32.140625 46.328125 31.597656 46.328125 31.597656 C 45.859375 36.832031 41.894531 39.324219 41.894531 39.324219 C 41.894531 39.324219 39.527344 34.832031 39.984375 32.371094 Z M 39.984375 32.371094 " fill-opacity="1" fill-rule="nonzero"/><path fill="#f8b498" d="M 41.566406 34.550781 C 43.054688 34.464844 44.335938 35.597656 44.425781 37.085938 C 44.515625 38.574219 43.378906 39.855469 41.890625 39.941406 C 40.398438 40.03125 39.121094 38.898438 39.03125 37.410156 C 38.941406 35.921875 40.078125 34.640625 41.566406 34.550781 Z M 41.566406 34.550781 " fill-opacity="1" fill-rule="nonzero"/><path fill="#000000" d="M 42.632812 38.34375 C 42.628906 37.699219 42.449219 37.199219 42.089844 36.855469 C 41.539062 36.328125 40.738281 36.359375 40.734375 36.355469 C 40.65625 36.363281 40.570312 36.292969 40.566406 36.203125 C 40.5625 36.117188 40.628906 36.042969 40.71875 36.039062 C 40.753906 36.035156 41.660156 36.003906 42.308594 36.625 C 42.734375 37.027344 42.949219 37.605469 42.953125 38.34375 C 42.953125 38.433594 42.878906 38.503906 42.792969 38.503906 C 42.703125 38.503906 42.632812 38.433594 42.632812 38.34375 Z M 42.632812 38.34375 " fill-opacity="1" fill-rule="nonzero"/><path fill="#f8b498" d="M 53.347656 51.839844 C 53.347656 51.839844 51.15625 57.007812 45.453125 56.753906 C 39.746094 56.496094 37.550781 50.691406 37.550781 50.691406 C 46.351562 49.246094 53.347656 51.839844 53.347656 51.839844 Z M 53.347656 51.839844 " fill-opacity="1" fill-rule="nonzero"/><path fill="#000000" d="M 48.859375 42.949219 C 48.8125 42.875 48.839844 42.777344 48.917969 42.730469 C 48.992188 42.6875 49.089844 42.710938 49.136719 42.789062 C 49.964844 44.203125 52.128906 43.652344 52.152344 43.644531 C 52.234375 43.621094 52.324219 43.675781 52.347656 43.757812 C 52.371094 43.84375 52.320312 43.933594 52.234375 43.957031 C 52.191406 43.96875 51.738281 44.082031 51.160156 44.082031 C 50.390625 44.082031 49.402344 43.878906 48.859375 42.949219 Z M 48.859375 42.949219 " fill-opacity="1" fill-rule="nonzero"/><path fill="#ffffff" d="M 41.066406 50.15625 L 45.671875 55.039062 L 49.429688 50.546875 L 53.84375 51.167969 L 51.21875 61.183594 L 45.71875 57.28125 L 39.925781 60.144531 L 36.695312 50.792969 Z M 41.066406 50.15625 " fill-opacity="1" fill-rule="nonzero"/><path fill="#000000" d="M 45.71875 71.023438 C 45.648438 71.023438 45.589844 70.96875 45.589844 70.898438 L 45.589844 57.566406 C 45.589844 57.496094 45.648438 57.4375 45.71875 57.4375 C 45.789062 57.4375 45.84375 57.496094 45.84375 57.566406 L 45.84375 70.898438 C 45.84375 70.96875 45.789062 71.023438 45.71875 71.023438 Z M 45.71875 71.023438 " fill-opacity="1" fill-rule="nonzero"/><path fill="#ff3e4d" d="M 110.097656 74.039062 C 110.257812 74.269531 110.523438 74.371094 110.777344 74.425781 C 111.335938 74.546875 111.945312 74.507812 112.425781 74.164062 C 112.539062 74.085938 112.648438 73.980469 112.664062 73.832031 C 112.683594 73.691406 112.601562 73.550781 112.496094 73.472656 C 112.390625 73.398438 112.261719 73.375 112.136719 73.359375 C 111.617188 73.304688 111.09375 73.398438 110.574219 73.367188 C 110.402344 73.355469 110.171875 73.238281 110.046875 73.398438 C 109.921875 73.5625 109.996094 73.890625 110.097656 74.039062 Z M 110.097656 74.039062 " fill-opacity="0.5569" fill-rule="nonzero"/></svg>